<!--?xml version="1.0" encoding="utf-8"?-->
<!-- Generator: Adobe Illustrator 25.2.3, SVG Export Plug-In . SVG Version: 6.00 Build 0)  -->
<svg version="1.1" id="_x31_1" xmlns="http://www.w3.org/2000/svg" xmlns:xlink="http://www.w3.org/1999/xlink" x="0px" y="0px" viewBox="0 0 720 399.375" style="width: 720px;" xml:space="preserve">
<style type="text/css">
 .stblack{fill:#000000;}
	.st0{fill:#77779B;}
	.st1{fill:#636387;}
	.st2{fill:#C8C9CA;}
	.st3{fill:#888888;}
	.st4{fill:#80D5D4;}
	.st5{fill:#D7D8D9;}
	.st6{fill:#94C85C;}
	.st7{fill:#F0F0F0;}
	.st8{fill:#EEEEEF;}
	.st9{fill:#80B448;}
	.st10{fill:#A3D76B;}
</style>
<g id="svgID1">
	<path class="st0" d="M465.742,322.124l-4.266,34.702l-24.069,8.854l-28.497,10.501l-194.269,19.967
		c-2.617,0.098-5.266-0.129-7.818-0.71L9.939,350.428c-3.909-0.904-6.656-4.362-6.656-8.336v-12.828
		c0-1.066,0.194-2.067,0.549-3.004c1.228-3.231,4.362-5.525,8.012-5.525h93.662L465.742,322.124z" style="opacity: 1;"></path>
	<path class="st1" d="M437.408,353.271v12.408l-28.497,10.501l-194.269,19.967c-2.617,0.098-5.266-0.129-7.818-0.71L9.939,350.428
		c-3.909-0.904-6.656-4.362-6.656-8.336v-12.828c0-1.066,0.194-2.067,0.549-3.004l34.893,8.627l165.159,35.347
		c2.552,0.582,5.169,0.841,7.786,0.743l190.328-13.505L437.408,353.271z" style="opacity: 1;"></path>
	<path class="st2" d="M449.49,333.173c-19.126,2.231-38.252,4.427-38.252,4.427l-26.978,3.102l-75.955,7.917l-59.9,4.427
		c-2.649,0.388-5.396,0.259-8.012-0.29l-116.6-25.526c-5.977-1.292-10.565-6.042-11.664-12.019l-2.229-11.858l-8.561-26.689
		c-0.614-3.102-27.979-116.284-43.584-180.842c-0.775-3.231-1.551-6.333-2.261-9.272c-1.39-5.817-2.682-11.051-3.781-15.639
		c-2.391-9.952,4.782-19.645,15.024-20.257l257.657-15.445l9.077-1.388c0,0,26.946,0,36.282,0c9.337,0,13.474,10.372,14.507,17.641
		c0.614,4.296,2.682,16.251,4.297,25.266c1.066,6.203,1.939,11.017,1.939,11.017l14.505,60.131l12.439,51.826
		c0,0,8.173,34.055,18.609,77.545c3.135,13.054,6.462,26.946,9.855,41.033C447.1,323.223,448.294,328.197,449.49,333.173z" style="opacity: 1;"></path>
	<path class="st3" d="M439.443,312.703l-140.857,14.649c0,0-33.151,2.057-38.176,2.057c-5.025,0-90.259-19.361-100.281-22.931
		l270.605-30.04L439.443,312.703z" style="opacity: 1;"></path>
	<path class="st4" d="M112.883,72.966c-17.665,1.096-28.901,1.795-28.901,1.795s41.074,164.307,48.351,193.326
		c0.415-0.039,0.65-0.062,0.65-0.062l187.462-17.66c0,0,38.533-3.63,77.064-7.26c-1.955-9.774-3.909-19.546-3.909-19.546
		L360.428,57.678l-31.013,1.833C329.415,59.512,177.775,68.933,112.883,72.966z" style="opacity: 1;"></path>
	<path class="st5" d="M388.557,76.727c-1.098,1.616-2.358,2.843-3.813,3.651c-9.369,5.202-18.706-35.347-18.706-35.347
		s-81.157,8.303-189.325,12.471C92.292,60.766,63.506,67.099,55.494,86.549c-1.39-5.817-2.682-11.051-3.781-15.639
		c-2.391-9.952,4.782-19.645,15.024-20.257l257.657-15.445l9.077-1.388c0,0,26.946,0,36.282,0c9.337,0,13.474,10.372,14.507,17.641
		C384.874,55.757,386.942,67.712,388.557,76.727z" style="opacity: 1;"></path>
	<path class="st6" d="M626.01,170.459c-0.161,7.593-0.259,11.859-0.259,11.859l-4.458,212.57c0,0-169.81,0-219.016,0
		c-21.355-14.508-36.184-37.837-34.053-53.863l-0.71-12.569l25.103-163.877c0,0-13.99-38.321-20.581-65.785
		c-0.323-1.42-0.645-2.777-0.937-4.135c0,0-0.032-2.972-0.096-6.429c-18.481-16.543-32.696-31.989-32.147-39.29
		c1.325-18.126,18.126-20.162,59.801-18.126c0,0,5.979,0.226,12.052,0.453c0.808-1.423,1.421-2.49,1.421-2.49
		c6.04-10.76,16.121-26.882,27.558-22.164c7.626,3.135,17.091,19.225,23.102,30.113c3.327-0.322,5.783-0.549,5.783-0.549
		c5.395,0,17.478-0.678,17.478-0.678s1.357-28.885,20.159-30.92c4.297-0.453,8.336,1.196,12.019,4.103
		c12.504,9.628,20.936,32.891,20.936,32.891s51.887,31.989,54.051,96.706C604.849,143.997,616.126,155.662,626.01,170.459z" style="opacity: 1;"></path>
	<path class="st6" d="M424.73,164.744c-10.989-2.542-25.1,0.876-25.936,2.471c-23.955,2.281-60.139,66.063-70.267,133.257
		c-0.882-0.344-1.42-0.552-1.42-0.552s-15.745-6.124-39.363-8.748c-3.228-0.26-5.248-4.375-5.248-4.375
		c-9.623-16.621-31.491-14.871-43.737-11.372c0,0-14.871,4.373-20.119,6.124c-3.76,1.253-9.766,8.343-12.877,12.239
		c-3.505,1.767-6.622,4.055-9.121,7.055c-1.583,2.433,2.129,3.573,6.727,3.957l-0.462,0.38c0,0-3.49,5.108,2.892,5.303
		c0,0,14.868,1.969,25.011,3.255c5.336,3.053,18.673,9.52,36.382,9.802c4.181,3.212,48.324,36.456,79.301,33.137
		c32.543-3.487,61.6-97.638,65.086-117.397c0,0,66.075-16.695,71.472-47.281C484.067,186.253,454.374,168.1,424.73,164.744z" style="opacity: 1;"></path>
	<path class="st7" d="M379.717,95.22c25.149,21.279,57.068,44.495,57.068,44.495s-26.116,8.707-26.116,15.477
		c0,6.771-20.311,12.576-20.311,12.576s-7.719-44.274-13.542-61.907C370.993,88.226,379.717,95.22,379.717,95.22z" style="opacity: 1;"></path>
	<path class="st8" d="M388.423,301.254c6.769,32.889,33.852,94.797,33.852,94.797l-19.989-1.155c0,0-33.209-37.537-36.11-49.146
		C363.274,334.144,386.488,320.601,388.423,301.254z" style="opacity: 1;"></path>
	<path class="st9" d="M294.601,327.372c16.444,12.574,45.46,9.673,57.068-0.967c11.606-10.641,28.815-67.935,45.842-83.3
		c17.028-15.365,31.537-26.973,27.667,1.079c-3.868,28.052-24.181,57.07-31.918,63.841c-7.738,6.771-14.509,17.411-28.049,32.888
		c-13.542,15.477-13.542,21.281-43.526,10.641C291.7,340.913,262.683,317.698,294.601,327.372z" style="opacity: 1;"></path>
	<path class="st10" d="M518.231,8.681c-16.962,11.244-17.899,38.902-17.899,38.902s-40.352,4.329-44.069,4.329
		c-3.715,0-14.28-32.891-25.425-30.405c-11.18,2.49-18.642,28.563-18.642,28.563s-42.808-13.054-54.602-4.976
		c-11.791,8.078,24.813,34.767,46.525,53.991c21.743,19.257,26.719,25.46,8.077,19.871c0,0-18.901-8.756-40.159-20.162
		c-0.323-1.42-0.645-2.777-0.937-4.135c0,0-0.032-2.972-0.096-6.429c-18.481-16.543-32.696-31.989-32.147-39.29
		c1.325-18.126,18.126-20.162,59.801-18.126c0,0,5.979,0.226,12.052,0.453c0.808-1.423,1.421-2.49,1.421-2.49
		c6.04-10.76,16.121-26.882,27.558-22.164c7.626,3.135,17.091,19.225,23.102,30.113c3.327-0.322,5.783-0.549,5.783-0.549
		c5.395,0,17.478-0.678,17.478-0.678s1.357-28.885,20.159-30.92C510.509,4.125,514.548,5.773,518.231,8.681z" style="opacity: 1;"></path>
	<path class="stblack" d="M433.095,10.781c0.387-0.085,0.752-0.219,1.123-0.372c0.364-0.084,0.718-0.107,1.077-0.167
		c0.691,0.049,1.322,0.153,1.978,0.442c0.617,0.096,1.212,0.413,1.8,0.712c0.729,0.48,1.447,1.262,2.202,1.953
		c0.899,0.936,1.914,1.743,2.751,2.852c0.708,0.846,1.278,1.803,1.909,2.751c0.372,0.555,1.12,1.346,1.754,2.422
		c0.513,0.842,0.964,1.803,1.466,2.658c0.842,1.485,1.686,2.712,1.925,3.136c0.41,0.775,0.702,1.604,1.109,2.366
		c0.541,0.992,1.172,1.944,1.693,2.939c0.532,1.104,1.057,2.195,1.579,3.278c0.344,0.648,0.811,1.229,1.16,1.868
		c0.917,1.691,1.809,3.438,2.901,4.943c0.588,0.805,1.331,1.519,1.972,2.177c0.839,0.866,1.615,1.642,2.549,2.127
		c0.956,0.511,1.794,0.675,2.904,0.735c1.014-0.055,1.754-0.71,2.548-1.617c0.656-0.891,1.15-1.153,1.133-2.458
		c0.06-0.831,0.11-2.064-0.164-3.168c-0.251-1.01-0.808-1.952-1.24-3.046c-0.522-1.332-0.942-2.805-1.625-4.115
		c-0.611-1.191-1.48-2.22-2.122-3.256c-0.931-1.532-1.658-2.944-2.354-3.82c-0.418-0.641-1.167-1.309-1.822-2.22
		c-0.571-0.792-0.983-1.813-1.696-2.775c-0.582-0.781-1.398-1.483-2.04-2.355c-0.726-0.984-1.357-2.142-2.169-3.217
		c-0.729-0.984-1.79-1.825-2.598-2.848c-0.54-0.699-0.981-1.54-1.606-2.242c-1.046-1.256-2.456-2.307-3.728-3.479
		c-0.981-0.932-2.092-1.975-3.256-2.824c-1.324-0.645-2.595-1.27-3.985-1.556c-1.664-0.558-3.436-0.931-5.135-0.876
		c-0.885,0.112-1.753,0.278-2.546,0.502c-0.752,0.292-1.481,0.576-2.183,0.85c-1.155,0.547-2.532,0.89-3.565,1.668
		c-1.185,0.754-2.063,1.824-3.078,2.71c-1.085,1.035-2.343,1.931-3.299,3.072c-0.8,0.876-1.317,1.947-2.03,2.846
		c-0.653,0.812-1.412,1.518-2.027,2.338c-0.652,0.928-1.074,1.989-1.677,2.9c-0.467,0.741-1.133,1.344-1.584,2.067
		c-0.551,0.929-0.904,1.953-1.407,2.833c-0.505,0.88-1.212,1.614-1.664,2.428c-0.487,0.865-0.836,1.74-1.275,2.501
		c-0.45,0.778-0.994,1.445-1.396,2.114c-0.554,1.043-0.708,2.176-0.904,3.119c-0.172,0.822-0.424,1.47-0.366,2.152
		c0.226,2.622,1.903,3.924,4.179,2.341c0.697-0.484,1.549-1.174,2.308-2.261c0.454-0.653,0.806-1.496,1.267-2.395
		c0.653-1.278,1.641-2.856,2.513-4.481c0.907-1.683,1.762-3.411,2.543-4.712c0.83-1.324,1.535-2.217,1.685-2.417
		c0.533-0.757,0.939-1.631,1.503-2.374c0.953-1.303,2.142-2.455,3.389-3.654c0.467-0.423,0.844-0.984,1.35-1.407
		c0.644-0.481,1.354-0.986,2.057-1.425c0.655-0.451,1.257-1.037,1.978-1.387C431.574,11.197,432.367,11.109,433.095,10.781z" style="opacity: 1;"></path>
	<path class="stblack" d="M515.027,1.526c-1.584-0.678-3.338-1.065-5.111-1.297c-1.68-0.205-3.543-0.374-5.132-0.041
		c-1.44,0.347-2.912,0.541-4.251,1.199l-2.505,0.97c-0.803,0.371-1.541,0.863-2.292,1.332c-0.921,0.543-1.705,1.213-2.415,1.945
		c-0.713,0.721-1.527,1.382-2.111,2.157c-1.054,1.215-2.186,2.359-2.993,3.673c-0.554,0.754-1.221,2.089-1.97,3.526
		c-0.675,1.131-1.283,2.338-1.838,3.512c-0.839,2.018-1.363,3.846-1.529,4.428c-0.328,1.041-0.808,2.037-1.065,3.083
		c-0.175,0.685-0.344,1.374-0.459,2.067l-0.18,1.035l-0.096,0.514l-0.05,0.257l-0.002-0.039l-0.268-0.055l-0.002-0.002l0.049,0.088
		l-0.033-0.019c-0.096-0.002,0.18-0.016-0.218,0.006c-1.054,0.05-2.093,0.136-3.095,0.295c-1.079,0.172-2.12,0.522-3.078,0.806
		c-1.246,0.369-2.352,0.715-3.266,1.325c-1.751,1.171-2.765,2.837-2.493,5.202c0.121,1.032,0.882,1.586,2.078,2.185
		c0.899,0.45,2.046,1.029,3.344,1.281c1.137,0.219,2.384,0.134,3.688,0.23c0.797,0.077,1.615,0.156,2.437,0.237
		c0.495,0.038,0.639,0.084,1.425,0.093l2.42-0.013c2.657-0.071,5.157-0.358,7.386-0.525c0.013-0.308,0.024-0.571,0.035-0.831
		c0.115-1.982,0.175-3.879,0.374-5.471c0.15-1.486,0.364-3.409,0.355-3.613c0.077-0.748-0.046-1.728,0.125-2.816
		c0.11-0.958,0.584-1.925,0.789-3.065c0.216-0.899,0.232-1.937,0.511-2.942c0.387-1.087,0.929-2.209,1.464-3.297
		c0.416-1.062,0.76-2.171,1.361-3.163c0.363-0.732,1.085-1.12,1.535-1.746c0.388-0.579,0.823-1.062,1.262-1.556
		c0.427-0.508,0.846-1.062,1.402-1.376c0.418-0.289,0.863-0.538,1.297-0.79c0.47-0.174,0.951-0.295,1.388-0.513
		c0.749-0.465,1.582-0.82,2.445-1.052c1.139-0.366,2.049-0.123,3.013-0.09c1.002,0.044,2.071,0.062,3.038,0.375
		c0.865,0.312,1.631,0.929,2.513,1.417c0.923,0.547,2.008,0.994,2.942,1.732c1.041,0.855,1.904,1.945,2.873,2.963
		c0.775,0.786,1.693,1.488,2.425,2.352c0.645,0.805,1.095,1.746,1.69,2.579c0.675,0.91,1.511,1.718,2.133,2.655
		c0.5,0.754,0.781,1.631,1.237,2.382c0.593,0.95,1.352,1.784,1.88,2.715c0.53,0.929,0.811,1.956,1.275,2.835
		c0.481,0.934,1.051,1.767,1.459,2.627c0.423,0.872,0.678,1.765,1.014,2.537c0.563,1.141,1.412,2.018,2.074,2.818
		c0.576,0.696,0.951,1.347,1.541,1.772c2.237,1.627,4.367,1.306,4.431-1.817c0.016-0.947-0.062-2.174-0.552-3.603
		c-0.295-0.857-0.819-1.754-1.342-2.775c-0.745-1.456-1.601-3.378-2.636-5.261c-1.065-1.952-2.328-3.848-3.278-5.375
		c-0.948-1.608-1.634-2.774-1.789-3.039c-0.637-0.936-1.369-1.811-2.054-2.737c-1.152-1.606-2.237-3.351-3.649-5.131
		c-0.519-0.655-1.161-1.243-1.768-1.909c-0.719-0.846-1.466-1.767-2.366-2.638c-0.88-0.809-1.934-1.526-3.038-2.307
		C517.689,3.047,516.495,2.184,515.027,1.526z" style="opacity: 1;"></path>
	<path class="stblack" d="M375.647,86.441c-2.273-2.024-4.6-3.919-6.769-5.91c-1.792-1.625-3.453-3.338-5.155-4.957
		c-1.077-0.997-2.204-1.922-3.232-2.928c-1.205-1.156-2.278-2.412-3.408-3.583c-1.626-1.625-3.22-3.206-4.726-4.843
		c-1.156-1.379-2.294-2.792-3.327-4.179c-1.071-1.317-2.114-2.579-3.007-3.916c-0.801-1.3-1.625-2.65-2.067-3.881l-0.382-0.923
		l-0.183-0.798c-0.229-0.607-0.079-0.849-0.15-1.142c0.085-0.801,0.254-2.1,0.451-3.04c0.311-0.934,0.476-1.964,0.986-2.703
		c1.35-2.597,3.636-4.108,6.599-5.217c1.794-0.694,3.788-1.295,5.879-1.628c1.888-0.363,3.934-0.368,5.883-0.554
		c2.212-0.136,4.592-0.401,7.105-0.437c2.477-0.117,5.095,0.071,7.61-0.041c3.988-0.055,7.859-0.347,11.18-0.7
		c2.264-0.271,4.267-0.48,5.859-1.008c2.652-0.871,4.166-2.204,3.857-4.179c-0.215-1.387-1.672-2.453-3.923-3.269
		c-1.552-0.56-3.352-0.836-5.517-1.145c-2.104-0.3-4.531-0.732-6.944-0.814c-1.792-0.068-3.483,0.044-5.308,0.079
		c-2.15,0.062-4.387-0.082-6.416,0.106c-2.589,0.213-4.835,0.634-6.856,0.996c-1.145,0.18-2.735,0.213-4.461,0.571
		c-1.707,0.278-3.523,0.865-5.723,1.458c-0.948,0.199-2.007,0.563-3.094,0.887c-1.087,0.293-2.218,0.699-3.329,1.283
		c-0.983,0.469-1.936,0.961-2.862,1.702c-0.932,0.691-1.898,1.332-2.794,2.286c-0.874,0.809-1.794,1.652-2.524,2.729
		c-0.388,0.513-0.786,1.03-1.15,1.565l-0.831,1.715c-1.204,2.57-1.478,5.2-1.74,7.843c-0.025,0.336-0.096,0.582-0.091,0.999
		l0.062,1.311l0.112,1.324l0.29,1.095c0.363,1.533,0.943,2.75,1.54,3.935c1.171,2.176,2.568,3.892,3.949,5.74
		c1.182,1.545,2.338,3.269,3.609,4.698c1.117,1.257,2.267,2.314,3.42,3.496c1.603,1.72,3.215,3.566,4.843,5.175
		c1.361,1.338,2.772,2.4,4.106,3.676c1.907,1.748,3.725,3.692,5.558,5.295c1.47,1.302,2.911,2.362,4.304,3.554
		c1.289,1.108,2.493,2.415,3.691,3.427c1.835,1.485,3.447,2.789,5.002,4.047c1.401,1.186,2.783,2.636,4.218,3.854
		c0.967,0.827,1.951,1.445,2.926,2.288c0.997,0.871,2.005,1.939,3.018,2.81c1.391,1.191,2.802,2.171,4.215,3.353
		c1.524,1.284,3.04,2.788,4.583,4.05c1.148,0.943,2.302,1.674,3.453,2.598c1.511,1.21,3.01,2.632,4.518,3.805
		c1.69,1.302,3.365,2.378,5.028,3.632c1.324,0.994,2.627,2.193,3.919,3.157c1.208,0.891,2.404,1.554,3.576,2.419
		c1.316,1.033,2.705,2.125,3.964,3.114c1.666,1.223,3.297,2.169,4.845,3.312c1.335,0.973,2.63,2.124,3.857,3.037
		c1.04,0.768,2.041,1.289,2.993,2.01c1.734,1.313,3.422,2.628,4.998,3.545c1.587,0.907,3.048,1.42,4.406,1.95
		c2.003,0.808,3.755,1.41,5.064,1.455c3.773,0.019,3.997-2.385-0.678-6.502c-1.306-1.16-3.073-2.378-5.214-3.856
		c-1.574-1.104-3.321-2.381-5.389-3.657c-1.019-0.618-2.084-1.134-3.053-1.751c-1.778-1.122-3.4-2.333-5.034-3.428
		c-2.53-1.687-4.988-3.239-7.279-4.883c-1.439-1.04-2.778-2.158-4.155-3.198c-2.086-1.557-4.203-3.01-6.231-4.602
		c-1.45-1.126-2.81-2.376-4.266-3.547c-1.623-1.294-3.327-2.531-4.985-3.909c-1.598-1.316-3.13-2.788-4.797-4.203
		c-1.256-1.022-2.543-2.067-3.865-3.143c-1.395-1.261-2.832-2.561-4.318-3.906c-1.884-1.592-3.848-3.252-5.908-4.993
		C378.543,89.197,377.176,87.782,375.647,86.441z" style="opacity: 1;"></path>
	<path class="stblack" d="M461.874,150.334c-0.208-1.447-0.528-3.018-1.144-4.481c-0.863-2.122-2.175-4.015-3.31-5.869
		c-1.384-2.131-2.628-4.222-3.977-5.975c-1.286-1.709-2.655-3.065-3.693-4.394c-2.781-3.386-4.46-5.503-4.02-6.05
		c0.357-0.446,2.568,0.42,5.779,2.74c1.519,1.103,3.218,2.567,5.054,4.343c1.224,1.111,2.486,2.39,3.756,3.812
		c1.014,1.25,2.021,2.594,2.988,4.089c0.983,1.371,1.923,2.908,2.751,4.577c0.861,1.881,1.56,3.954,1.901,6.284
		c0.172,1.188,0.317,2.251,0.208,3.302c-0.017,1.024-0.106,1.945-0.423,2.791c-0.194,0.622-0.374,1.202-0.592,1.728
		c-0.306,0.488-0.596,0.948-0.876,1.391c-0.528,0.923-1.196,1.57-1.898,2.202c-0.641,0.65-1.303,1.265-2.134,1.735
		c-0.819,0.503-1.65,1.186-2.84,1.56c-0.623,0.222-1.295,0.461-2.024,0.721c-0.745,0.181-1.576,0.256-2.461,0.418
		c-1.062,0.251-2.095,0.159-3.127,0.183c-1.046,0.055-2.016-0.129-2.978-0.309c-2.357-0.413-4.422-1.316-6.305-2.206
		c-2.125-0.986-4.021-2.073-5.676-3.237c-1.746-1.234-3.198-2.564-4.488-3.756c-1.024-0.928-1.956-1.772-2.724-2.602
		c-2.712-3.007-3.857-5.142-3.395-5.557c0.409-0.374,1.813,0.715,4.345,2.445c1.486,1.019,3.439,2.146,5.578,3.523
		c1.824,1.122,3.756,2.534,6.05,3.603c0.876,0.443,1.806,0.809,2.77,1.101c0.951,0.369,1.936,0.593,2.918,0.86
		c1.032,0.374,2.076,0.421,3.141,0.697c1.035,0.005,2.153,0.26,3.179-0.002c1.609-0.164,2.625-0.975,3.578-1.324
		c2.161-1.374,3.177-2.218,3.985-3.998C462.02,153.638,462.282,152.394,461.874,150.334z" style="opacity: 1;"></path>
	<path class="stblack" d="M373.796,123.749c-0.462-1.541-0.609-3.143-1.003-4.624c-0.558-2.146-1.309-4.148-1.72-6.123
		c-0.456-2.31-0.517-4.559-0.775-6.536c-0.218-1.925-0.633-3.599-0.678-5.123c-0.071-3.99,0.462-6.454,1.503-6.68
		c0.965-0.211,2.363,1.464,3.912,4.457c0.757,1.418,1.429,3.17,2.246,5.132c0.54,1.268,1.249,2.6,1.803,4.058
		c0.462,1.226,0.8,2.554,1.284,3.897c0.462,1.284,1.052,2.578,1.505,3.955c0.508,1.513,0.866,3.122,1.347,4.731
		c0.489,1.634,1.01,2.879,1.298,3.974c0.434,1.625,0.555,2.863,0.855,4.107c0.281,1.186,0.719,2.373,1.204,4.064
		c0.265,0.909,0.45,1.994,0.852,3.233c0.48,1.477,1.074,2.882,1.511,4.296c0.528,1.726,0.876,3.45,1.328,5.061
		c0.502,1.802,1.087,3.476,1.481,5.093c0.41,1.71,0.623,3.353,0.898,4.807c0.215,1.145,0.53,2.152,0.653,3.111
		c0.445,3.427,0.273,5.591-0.669,5.935c-0.827,0.303-1.843-0.961-3.385-3.247c-0.906-1.346-2.177-2.982-3.213-5.036
		c-0.877-1.734-1.5-3.791-2.414-5.937c-0.697-1.663-1.693-3.337-2.384-5.202c-0.73-1.961-1.182-4.11-1.873-6.251
		c-0.547-1.592-1.281-2.753-1.656-3.818c-0.929-2.613-1.248-4.119-2.043-6.47C375.235,127.343,374.443,125.896,373.796,123.749z" style="opacity: 1;"></path>
	<path class="stblack" d="M628.762,187.057c-1.639-2.788-2.739-5.84-4.39-8.445c-1.169-1.896-2.379-3.717-3.546-5.5
		c-1.169-1.781-2.47-3.381-3.557-5.078c-2.482-3.999-4.947-7.568-7.239-10.835c-2.492-2.838-4.717-5.523-6.807-7.571
		c-1.303-1.423-2.458-2.755-3.455-3.962c-1.092-1.049-2.01-2.008-2.737-2.852c-1.45-1.69-2.131-2.92-1.808-3.507
		c0.298-0.54,1.453-0.529,3.403,0.024c1.937,0.562,4.788,1.549,7.828,3.575c1.453,0.937,3.154,1.918,4.714,3.239
		c1.562,1.335,3.24,2.769,5.023,4.293c2.284,2.004,4.572,4.298,6.979,6.789c1.937,2.154,3.608,4.659,5.572,7.106
		c1.879,2.343,3.646,4.862,5.452,7.483c2.029,2.87,3.496,6.154,5.359,9.313c1.876,3.217,3.171,5.822,4.274,8.024
		c1.62,3.278,2.376,5.84,3.389,8.407c0.95,2.452,2.205,4.888,3.48,8.47c0.716,1.915,1.385,4.176,2.409,6.79
		c1.081,3.168,2.292,6.221,3.28,9.258c1.118,3.734,1.854,7.445,2.762,10.922c0.833,3.947,1.762,7.66,2.343,11.187
		c0.465,3.767,0.748,7.264,0.95,10.417c0.096,2.493,0.328,4.75,0.33,6.793c-0.181,7.338-1.259,11.577-2.45,11.591
		c-1.1,0.027-1.948-3.149-3.133-8.545c-0.918-3.162-2.084-7.062-3.273-11.574c-1.018-3.81-1.674-8.139-3.076-12.697
		c-0.937-3.551-2.524-7.147-3.747-11.004c-1.193-4.081-2.526-8.335-3.945-12.699c-1.289-3.187-2.664-5.563-3.546-7.678
		c-2.286-5.148-3.365-8.085-5.608-12.593C632.638,193.84,631.011,190.993,628.762,187.057z" style="opacity: 1;"></path>
	<path class="stblack" d="M353.719,209.867c1.661-3.146,3.576-6.069,5.334-8.974c2.556-4.184,4.952-8.262,7.672-11.834
		c3.142-4.171,6.51-7.738,9.683-10.85c3.079-2.998,5.977-5.629,8.844-7.491c3.736-2.419,7.239-3.638,9.703-3.949
		c2.461-0.364,3.827,0.093,3.84,0.453c0.063,0.899-4.01,1.716-9.243,6.227c-2.494,2.075-5.373,4.766-8.252,8.234
		c-1.866,2.237-3.701,4.793-5.63,7.516c-1.626,2.288-3.366,4.668-5.013,7.259c-1.578,2.479-3.042,5.154-4.617,7.858
		c-1.715,2.993-3.54,6.05-5.237,9.275c-1.72,3.277-2.907,5.935-4.005,8.131c-1.595,3.277-2.898,5.594-4.053,8.111
		c-1.141,2.384-2.13,4.946-3.606,8.472c-0.746,1.915-1.756,4.066-2.72,6.729c-1.167,3.168-2.144,6.326-3.182,9.371
		c-1.246,3.72-2.541,7.29-3.603,10.763c-1.199,3.883-2.191,7.611-3.152,11.085c-1.051,3.668-2.024,7.065-2.903,10.132
		c-0.598,2.439-1.144,4.67-1.633,6.673c-1.893,7.139-3.098,11.35-3.953,11.236c-0.68-0.092-0.702-3.476-0.263-9.357
		c0.248-3.457,0.524-7.809,1.358-12.771c0.699-4.189,1.843-8.786,3.059-13.763c0.91-3.856,1.77-7.98,3.04-12.178
		c1.298-4.425,3.067-8.909,4.759-13.566c1.27-3.483,2.063-6.326,2.978-8.641c2.213-5.7,3.72-8.735,5.958-13.73
		C350.11,217.597,351.421,214.261,353.719,209.867z" style="opacity: 1;"></path>
	<path class="stblack" d="M417.485,247.199c1.516-4.312-1.141-8.381-4.722-7.29c-1.519,0.409-2.595,0.836-3.796,1.279
		c-2.089,0.773-3.964,1.688-5.245,3.305c-1.054,1.324-1.609,3.146-2.28,5.566c-0.487,1.795-1.349,4.026-2.054,6.645
		c-0.659,2.48-1.159,5.325-1.964,8.216c-0.631,2.299-1.57,4.585-2.264,6.956c-0.792,2.627-1.338,5.351-2.153,7.873
		c-0.928,2.953-1.959,5.713-2.664,8.262c-0.718,2.545-1.118,4.888-1.833,6.577c-0.448,1.073-1.246,2.436-1.966,4.186
		c-0.645,1.601-1.141,3.572-2.016,5.609c-0.921,2.24-2.256,4.561-3.431,7.163c-0.702,1.488-1.267,3.116-2.1,4.662
		c-0.909,1.606-2.103,3.11-3.078,4.765c-1.317,2.122-2.399,4.452-3.732,6.64c-0.947,1.663-2.164,3.132-3.111,4.788
		c-1.033,1.735-1.88,3.614-2.996,5.273c-1.208,1.765-2.663,3.291-4.045,4.774c-0.691,0.824-1.264,1.71-2.002,2.433
		c-1.425,1.464-3.112,2.447-4.553,3.532c-2.371,1.731-4.649,3.045-6.796,3.652c-0.879,0.208-1.789,0.177-2.717,0.221
		c-1.093-0.134-2.202-0.284-3.324-0.364c-0.869-0.088-1.731,0.005-2.641-0.096c-0.91-0.114-1.838-0.219-2.769-0.372
		c-0.814-0.163-1.641-0.327-2.474-0.492c-0.831-0.213-1.674-0.5-2.537-0.65c-1.849-0.374-3.816-0.309-5.738-0.86
		c-1.836-0.48-3.638-1.07-5.482-1.647c-1.996-0.637-4.105-1-6.086-1.718c-1.071-0.431-2.04-1.092-3.103-1.505
		c-2.128-0.786-4.319-1.423-6.346-2.337c-2.57-1.078-4.887-2.526-7.189-3.745c-1.478-0.754-3-1.35-4.338-2.157
		c-2.571-1.505-4.737-3.275-6.761-4.711c-1.628-1.12-3.166-2.049-4.401-3.039c-2.078-1.693-3.943-3.075-5.642-4.105
		c-2.004-1.248-3.594-2.25-5.032-2.682c-2.224-0.659-3.732-0.424-4.4,0.42c-0.897,1.103-0.323,3.567,2.336,6.401
		c1.044,1.073,2.521,2.026,4.214,3.13c1.38,0.895,2.811,2.041,4.666,2.859c1.712,0.767,3.715,1.488,5.76,2.475
		c1.85,0.915,3.669,2.177,5.758,3.225c1.652,0.836,3.448,1.559,5.223,2.439c3.679,1.952,7.457,4.242,11.486,6.243
		c1.685,0.778,3.483,1.322,5.182,2.095c1.609,0.74,3.275,1.355,4.9,2.049c1.625,0.696,3.266,1.333,4.952,1.78
		c1.349,0.393,2.702,0.723,4.031,1.054c1.335,0.311,2.688,0.476,3.977,0.8c1.117,0.263,2.209,0.576,3.284,0.876
		c1.096,0.197,2.182,0.372,3.247,0.48c1.025,0.103,2.043-0.065,3.01,0.021c1.754,0.051,3.436-0.043,5.007-0.025
		c1.557,0.084,3.068-0.167,4.441-0.467c1.464-0.312,4.36-1.281,7.913-3.176c1.201-0.713,2.74-1.232,4.016-2.253
		c1.884-1.32,3.532-3.163,5.362-4.982c2.369-2.464,4.879-5.162,6.984-8.253c1.742-2.455,3.182-5.168,4.835-7.719
		c1.989-3.016,3.966-6.052,5.562-9.154c1.466-2.759,2.53-5.601,3.852-8.109c1.578-3.043,3.289-5.736,4.591-8.18
		c2.417-4.58,3.966-7.988,4.472-9.237c0.481-1.152,1.253-2.419,1.857-3.927c0.609-1.504,1.014-3.253,1.694-5.006
		c1.275-3.233,2.881-6.721,4.245-10.302c1.29-3.375,2.302-6.83,3.537-9.897c1.48-3.685,3.161-6.866,4.569-9.172
		c1.022-1.688,1.66-3.595,2.426-5.454C415.907,250.903,416.852,249.026,417.485,247.199z" style="opacity: 1;"></path>
	<path class="stblack" d="M372.2,370.485c-0.945-1.407-1.428-3.069-2.199-4.482c-1.025-2.105-2.179-4.067-2.833-6.134
		c-0.364-1.212-0.677-2.384-0.874-3.547c-0.159-1.169-0.311-2.291-0.456-3.353c-0.21-2.064-0.585-3.887-0.409-5.533
		c0.125-1.071,0.276-2.018,0.445-2.829c0.219-0.819,0.525-1.508,0.786-2.049c0.543-1.084,1.074-1.59,1.571-1.522
		c0.459,0.062,0.888,0.606,1.281,1.485c0.377,0.882,0.702,2.089,1.267,3.575c0.383,1.395,0.977,3.056,1.615,4.883
		c0.555,1.149,1.155,2.39,1.786,3.696c0.574,1.087,0.926,2.303,1.571,3.477c0.652,1.1,1.327,2.24,2.021,3.409
		c0.806,1.272,1.377,2.717,2.268,4.045c0.912,1.338,1.63,2.387,2.235,3.274c0.898,1.322,1.399,2.4,2.046,3.438
		c0.67,0.954,1.488,1.854,2.522,3.187c0.535,0.735,1.177,1.57,2.011,2.505c0.997,1.115,2.093,2.089,3.111,3.086
		c1.204,1.253,2.276,2.565,3.458,3.666c1.281,1.278,2.595,2.374,3.788,3.449c1.227,1.178,2.28,2.396,3.352,3.349
		c0.827,0.773,1.647,1.391,2.3,2.078c2.433,2.296,3.696,4.053,3.232,4.873c-0.409,0.716-1.961,0.342-4.632-0.538
		c-1.587-0.487-3.535-1.205-5.654-2.3c-1.735-0.992-3.445-2.415-5.403-3.818c-1.459-1.147-3.25-2.109-4.77-3.51
		c-1.603-1.469-3.086-3.192-4.63-4.943c-1.208-1.261-2.376-2.078-3.135-2.982c-1.939-2.149-2.789-3.518-4.352-5.59
		C374.633,373.751,373.484,372.47,372.2,370.485z" style="opacity: 1;"></path>
	<path class="stblack" d="M302.6,297.515c-0.847-0.158-1.631-0.566-2.434-0.756c-1.161-0.275-2.316-0.3-3.36-0.604
		c-1.215-0.361-2.316-0.932-3.34-1.309c-0.991-0.36-1.909-0.505-2.674-0.861c-1.99-0.95-3.142-1.956-3.047-2.822
		c0.088-0.798,1.242-1.461,3.165-1.904c0.913-0.218,1.981-0.252,3.198-0.323c0.787-0.05,1.65-0.192,2.543-0.189
		c0.751,0.013,1.513,0.17,2.322,0.229c0.775,0.06,1.596,0.003,2.412,0.121c0.899,0.123,1.802,0.39,2.739,0.565
		c0.953,0.177,1.715,0.249,2.338,0.41c0.924,0.248,1.562,0.573,2.248,0.812c0.655,0.224,1.363,0.336,2.325,0.595
		c0.517,0.136,1.084,0.42,1.8,0.59c0.853,0.208,1.715,0.306,2.518,0.551c0.98,0.293,1.891,0.705,2.78,1.035
		c0.997,0.358,1.966,0.622,2.827,1.013c0.913,0.402,1.707,0.95,2.442,1.362c0.576,0.333,1.131,0.549,1.587,0.871
		c1.625,1.16,2.418,2.253,2.122,3.012c-0.259,0.667-1.178,0.768-2.729,0.831c-0.912,0.036-2.084,0.208-3.332,0.084
		c-1.049-0.114-2.145-0.495-3.387-0.713c-0.967-0.151-2.033-0.134-3.086-0.341c-1.103-0.229-2.19-0.724-3.37-1.003
		c-0.888-0.194-1.645-0.104-2.246-0.2c-1.473-0.245-2.243-0.577-3.565-0.781C304.681,297.676,303.782,297.741,302.6,297.515z" style="opacity: 1;"></path>
	<path class="stblack" d="M251.481,270.119c2.092-0.12,4.151,0.049,6.15,0.194c2.887,0.169,5.697,0.481,8.279,1.213
		c3.007,0.861,5.626,2.267,7.844,3.69c2.147,1.377,3.975,2.789,5.278,4.293c3.34,3.985,3.935,7.051,3.458,7.29
		c-0.267,0.155-0.869-0.191-1.715-0.923c-0.405-0.374-0.896-0.828-1.468-1.358c-0.616-0.484-1.291-1.046-2.014-1.677
		c-0.737-0.535-1.541-1.119-2.411-1.75c-0.906-0.568-1.906-1.136-2.976-1.688c-0.726-0.293-1.481-0.6-2.261-0.915
		c-0.805-0.245-1.636-0.499-2.489-0.759c-1.458-0.368-2.956-0.866-4.606-1.066c-1.552-0.278-3.217-0.281-4.901-0.377
		c-1.865-0.073-3.803-0.144-5.793-0.022c-2.02,0.117-3.591,0.415-4.928,0.558c-1.979,0.278-3.434,0.412-4.929,0.697
		c-1.402,0.282-2.84,0.71-4.964,1.346c-1.13,0.325-2.455,0.623-4.003,1.093c-1.839,0.581-3.641,1.15-5.394,1.704
		c-2.168,0.581-4.265,1.144-6.269,1.68c-0.559,0.158-1.111,0.312-1.656,0.465c-0.568,0.183-0.688,0.248-1.113,0.459
		c-0.74,0.415-1.524,0.958-2.272,1.546c-1.594,1.224-3.117,2.49-4.421,3.704c-0.999,0.997-1.909,1.907-2.731,2.728
		c-3.012,2.895-4.892,4.556-5.402,4.178c-0.44-0.323,0.416-2.065,2.198-4.933c1.055-1.68,2.33-3.838,4.221-6.077
		c1.673-1.868,3.498-3.823,6.605-5.642l1.035-0.491l0.815-0.303c0.539-0.204,1.085-0.41,1.637-0.618
		c1.105-0.417,2.241-0.839,3.416-1.22c2.473-0.801,5.116-1.44,7.791-2.254c1.996-0.626,3.52-1.306,4.854-1.739
		c3.285-1.066,5.366-1.447,8.472-2.026C246.516,270.793,248.567,270.31,251.481,270.119z" style="opacity: 1;"></path>
	<path class="stblack" d="M254.221,319.061c0.926,0.169,1.803,0.51,2.687,0.693c1.273,0.292,2.534,0.279,3.693,0.517
		c1.345,0.328,2.623,0.641,3.766,0.92c1.13,0.186,2.126,0.35,3.019,0.499c2.295,0.53,3.713,1.186,3.738,1.855
		c0.022,0.617-1.155,1.237-3.247,1.762c-0.992,0.275-2.183,0.36-3.541,0.461c-0.878,0.069-1.835,0.24-2.84,0.248
		c-0.843-0.014-1.717-0.136-2.634-0.183c-0.878-0.038-1.798-0.011-2.722-0.155c-1.02-0.142-2.053-0.385-3.117-0.577
		c-1.072-0.238-1.93-0.353-2.635-0.538c-1.05-0.26-1.767-0.622-2.537-0.898c-0.734-0.268-1.53-0.423-2.597-0.783
		c-0.572-0.202-1.204-0.511-1.995-0.767c-0.949-0.287-1.881-0.565-2.763-0.909c-1.079-0.409-2.059-0.962-3.019-1.425
		c-1.082-0.495-2.104-0.984-3.026-1.504c-0.965-0.573-1.792-1.223-2.552-1.773c-0.592-0.445-1.174-0.77-1.631-1.183
		c-1.646-1.445-2.372-2.636-2.011-3.151c0.315-0.45,1.248-0.202,2.848,0.23c0.939,0.257,2.161,0.462,3.453,0.904
		c1.087,0.379,2.22,0.962,3.524,1.428c1.01,0.357,2.151,0.547,3.252,0.948c1.181,0.364,2.317,1.016,3.593,1.399
		c0.955,0.287,1.763,0.338,2.403,0.508c1.595,0.357,2.428,0.738,3.861,1.027C251.97,318.763,252.94,318.776,254.221,319.061z" style="opacity: 1;"></path>
	<path class="stblack" d="M111.955,309.404c-0.056-1.75-0.237-3.722-0.518-6.287c-0.465-2.027-1.004-4.373-1.603-6.976
		c-0.925-4.23-1.746-9.226-3.152-14.742c-0.388-1.522-0.879-3.065-1.389-4.657c-0.323-0.97-0.34-1.071-0.578-2.109
		c-0.181-0.842-0.365-1.696-0.551-2.562c-0.738-3.766-1.215-7.828-2.122-12.039c-1.006-4.678-2.462-9.554-3.692-14.762
		c-1.577-6.67-2.666-12.924-3.998-18.769c-1.036-4.544-2.352-8.811-3.291-13.016c-0.827-3.7-1.284-7.369-2.07-10.908
		c-0.891-4.017-2.105-7.887-2.986-11.826c-1.011-4.528-1.691-9.127-2.753-13.752c-1.232-5.366-2.861-10.791-4.259-16.592
		c-1.279-5.303-2.314-10.775-3.77-16.315c-1.122-4.271-2.632-8.549-3.843-13.009c-1.334-4.911-2.377-10.029-3.8-15.226
		c-1.197-4.37-2.76-8.773-4.007-13.383c-1.523-5.628-2.741-11.528-4.321-17.574c-0.802-2.876-1.618-5.801-2.448-8.78
		c-0.776-2.945-1.934-6.178-2.054-8.6c-0.114-2.723,0.929-5.411,2.453-7.672c1.38-2.153,3.279-3.73,5.27-4.72
		c0.98-0.533,2.015-0.874,3.03-1.131c1.038-0.265,1.943-0.377,3.227-0.521c3.837-0.319,7.353-0.18,10.599-0.325
		c3.395-0.151,6.499-0.579,9.461-0.644c5.45-0.117,10.372,0.17,15.404-0.169c8.252-0.554,15.14-1.302,21.133-1.598
		c5.013-0.249,9.404-0.079,13.381-0.215c6.996-0.238,12.757-0.696,18.678-0.844c3.874-0.096,7.829,0.139,12.202-0.035
		c4.099-0.164,8.564-0.729,13.747-1.04c6.977-0.418,14.495-0.544,22.369-1.06c6.906-0.453,14.083-1.284,21.472-1.792
		c4.389-0.303,8.866-0.265,13.37-0.581c5.744-0.404,11.545-1.164,17.403-1.584c4.753-0.341,9.55-0.338,14.327-0.685
		c5.816-0.421,11.614-1.194,17.393-1.619c5.705-0.418,10.76-0.544,15.109-1.048c4.01-0.465,7.418-1.303,10.252-1.8
		c8.501-1.491,11.679-2.691,9.197-3.769c-1.242-0.538-3.915-0.983-8.183-1.281c-4.267-0.297-10.109-0.099-17.73-0.049
		c-5.08,0.035-10.962-0.189-17.653,0.041c-5.777,0.199-12.153,0.824-19.198,1.19c-5.281,0.276-10.948,0.252-16.972,0.633
		c-5.099,0.314-9.652,0.948-13.814,1.213c-5.218,0.333-9.806,0.286-13.94,0.565c-5.196,0.352-9.686,1.018-13.942,1.332
		c-6.823,0.503-13.013,0.642-20.301,1.22c-4.478,0.353-9.356,1.089-15.089,1.537c-4.92,0.383-10.475,0.462-16.882,0.947
		c-5.94,0.45-11.514,1.18-16.829,1.519c-3.822,0.243-7.522,0.115-11.078,0.317c-5.289,0.301-10.288,0.913-15.119,1.164
		C102.063,45.3,96.85,45.218,91.786,45.5c-5.313,0.297-10.465,0.958-15.625,1.328c-2.25,0.162-4.503,0.248-6.764,0.349
		c-2.047,0.054-5.088,0.229-7.619,1.259c-6.524,2.302-11.198,8.231-12.565,14.888C48.9,65,48.682,66.728,48.799,68.463
		c0.034,1.742,0.437,3.542,0.678,4.875c0.555,2.903,1.118,5.853,1.784,8.846c0.858,3.857,2.086,7.74,3.029,11.847
		c1.052,4.585,1.833,9.425,3.052,14.415c1.085,4.716,2.395,8.9,3.278,12.796c1.608,7.093,2.58,13.055,3.733,18.276
		c1.34,6.061,2.806,11.152,3.936,16.28c0.934,4.241,1.53,8.53,2.59,13.197c1.19,5.241,2.876,10.98,4.55,18.053
		c0.951,4.017,1.668,8.515,2.863,13.47c1.055,4.375,2.607,9.179,3.881,14.221c1.029,4.075,1.759,8.33,2.82,12.441
		c0.797,3.076,1.586,6.115,2.344,9.04c1.007,3.861,2.31,7.451,3.177,10.742c2.175,8.25,3.419,14.232,3.658,15.098
		c1.074,3.908,2.497,7.751,3.609,11.763c0.271,1.046,0.544,2.1,0.82,3.162c0.278,1.167,0.396,1.316,0.575,1.947l0.501,1.589
		c0.67,2.128,1.352,4.296,2.134,6.486c1.437,4.025,3.262,8.112,4.834,12.558c0.569,1.604,1.133,3.37,1.455,4.397
		c0.339,1.873,0.695,3.897,1.072,5.328C111.364,317.725,112.184,317.239,111.955,309.404z" style="opacity: 1;"></path>
	<path class="stblack" d="M117.718,194.351c1.077,4.31,1.94,8.581,2.939,12.697c1.443,5.948,2.977,11.621,4.231,17.029
		c1.459,6.298,2.602,12.221,3.761,17.559c1.12,5.159,2.266,9.769,3.062,13.806c2.072,10.514,2.972,16.84,2.322,17.002
		c-0.599,0.148-2.504-4.943-5.247-13.775c-1.301-4.187-2.701-9.239-4.327-14.948c-1.052-3.692-2.251-7.647-3.405-11.866
		c-0.971-3.55-1.884-7.292-2.909-11.157c-0.981-3.698-2.072-7.505-3.088-11.446c-1.119-4.339-2.167-8.833-3.31-13.41
		c-1.161-4.645-2.145-8.275-2.888-11.361c-1.103-4.58-1.782-7.934-2.589-11.411c-0.77-3.315-1.663-6.74-2.827-11.523
		c-0.625-2.575-1.266-5.557-2.15-9.092c-1.053-4.214-2.163-8.321-3.146-12.342c-1.199-4.905-2.252-9.673-3.329-14.215
		c-1.205-5.083-2.418-9.89-3.445-14.406c-1.088-4.774-1.979-9.218-2.838-13.221c-0.676-3.146-1.365-6.008-1.882-8.598
		c-1.85-9.266-2.643-14.761-2.035-14.912c0.534-0.134,1.882,3.914,4.099,11.009c1.303,4.17,3.023,9.363,4.741,15.456
		c1.451,5.14,2.851,10.935,4.517,17.166c1.289,4.818,2.81,9.881,4.188,15.215c1.451,5.609,2.763,11.515,4.274,17.561
		c1.148,4.52,2.243,8.049,3.025,11.07c1.921,7.429,2.845,11.572,4.553,18.219C114.939,184.05,116.216,188.343,117.718,194.351z" style="opacity: 1;"></path>
	<path class="stblack" d="M207.255,264.206c-4.087,0.385-8.109,0.565-12.009,0.902c-5.634,0.489-11.029,1.109-16.146,1.496
		c-5.956,0.45-11.529,0.645-16.567,0.948c-4.871,0.293-9.241,0.7-13.042,0.85c-9.897,0.39-15.805,0.282-15.868-0.385
		c-0.058-0.614,4.855-1.693,13.3-3.01c4.005-0.625,8.812-1.212,14.253-1.918c3.519-0.458,7.297-1.018,11.311-1.492
		c3.377-0.399,6.922-0.712,10.596-1.115c3.514-0.387,7.143-0.865,10.884-1.246c4.119-0.423,8.371-0.748,12.71-1.156
		c4.405-0.416,7.859-0.816,10.782-1.063c4.337-0.368,7.497-0.51,10.786-0.759c3.135-0.238,6.387-0.581,10.921-0.977
		c2.437-0.213,5.252-0.375,8.605-0.691c3.996-0.377,7.902-0.825,11.712-1.163c4.647-0.412,9.15-0.7,13.449-1.049
		c4.811-0.39,9.372-0.83,13.641-1.133c4.512-0.322,8.699-0.503,12.475-0.721c2.967-0.172,5.679-0.401,8.12-0.503
		c8.724-0.369,13.859-0.287,13.917,0.338c0.052,0.547-3.832,1.242-10.618,2.313c-3.99,0.629-8.97,1.51-14.772,2.248
		c-4.898,0.623-10.387,1.092-16.311,1.756c-4.58,0.514-9.414,1.218-14.479,1.74c-5.325,0.547-10.904,0.913-16.638,1.455
		c-4.289,0.421-7.663,0.947-10.532,1.242c-7.052,0.727-10.967,0.988-17.276,1.628C217.05,263.084,212.954,263.67,207.255,264.206z" style="opacity: 1;"></path>
	<path class="stblack" d="M139.822,295.628c-1.54,0.148-3.068,0.096-4.539,0.208c-2.126,0.161-4.152,0.469-6.085,0.559
		c-2.251,0.104-4.371-0.021-6.28-0.008c-1.845,0.011-3.493,0.164-4.937,0.095c-3.762-0.18-6.028-0.626-6.092-1.294
		c-0.059-0.614,1.755-1.406,4.905-2.229c1.495-0.391,3.299-0.699,5.337-1.089c1.318-0.252,2.73-0.593,4.236-0.835
		c1.268-0.204,2.605-0.311,3.985-0.502c1.321-0.181,2.68-0.448,4.088-0.614c1.55-0.183,3.157-0.262,4.792-0.42
		c1.66-0.159,2.957-0.358,4.06-0.437c1.637-0.117,2.837-0.077,4.08-0.136c1.186-0.057,2.409-0.21,4.119-0.344
		c0.92-0.071,1.986-0.071,3.249-0.192c1.506-0.145,2.973-0.366,4.41-0.483c1.753-0.142,3.458-0.172,5.081-0.271
		c1.817-0.11,3.534-0.286,5.149-0.342c1.707-0.062,3.297,0,4.728,0c1.126,0,2.149-0.073,3.075-0.035
		c3.315,0.134,5.283,0.511,5.343,1.136c0.053,0.547-1.391,1.014-3.923,1.69c-1.488,0.398-3.339,0.986-5.514,1.387
		c-1.836,0.338-3.907,0.489-6.133,0.809c-1.721,0.248-3.527,0.671-5.434,0.898c-2.003,0.24-4.115,0.284-6.275,0.491
		c-1.615,0.174-2.874,0.502-3.954,0.631c-2.653,0.317-4.135,0.352-6.51,0.625C143.501,295.075,141.969,295.422,139.822,295.628z" style="opacity: 1;"></path>
	<path class="stblack" d="M190.686,328.251c-3.384-0.83-6.701-1.644-9.927-2.436c-4.67-1.109-9.176-2.075-13.399-3.141
		c-4.917-1.237-9.46-2.561-13.593-3.689c-3.997-1.09-7.613-1.991-10.705-2.927c-8.058-2.373-12.735-4.381-12.56-4.828
		c0.155-0.396,4.246,0.495,11.35,1.9c3.356,0.723,7.363,1.584,11.904,2.561c2.943,0.612,6.111,1.272,9.462,1.969
		c2.81,0.637,5.752,1.303,8.806,1.994c2.929,0.631,5.962,1.283,9.077,1.953c3.419,0.792,6.94,1.608,10.539,2.442
		c3.661,0.812,6.537,1.451,8.964,1.989c3.584,0.871,6.188,1.505,8.904,2.165c2.601,0.579,5.305,1.182,9.069,2.019
		c2.022,0.458,4.35,0.983,7.133,1.612c3.329,0.667,6.589,1.32,9.761,1.956c1.922,0.383,3.813,0.76,5.667,1.131
		c0.969,0.208,1.746,0.292,2.548,0.415c0.839,0.079,1.827-0.039,2.717-0.052c4.08-0.181,7.949-0.353,11.566-0.514
		c3.823-0.09,7.366-0.172,10.562-0.248c2.515-0.068,4.815-0.129,6.881-0.185c7.388-0.079,11.733,0.085,11.76,0.522
		c0.024,0.385-3.292,0.79-9.093,1.403c-3.409,0.36-7.674,0.874-12.633,1.272c-4.19,0.27-8.862,0.57-13.92,0.896
		c-1.955,0.15-3.969,0.303-6.034,0.462l-1.563,0.115l-1.785-0.164c-1.186-0.126-2.164-0.327-3.272-0.502
		c-4.522-0.792-9.137-1.874-13.929-2.876c-3.591-0.697-6.436-1.251-8.84-1.718c-5.877-1.297-9.127-2.013-14.383-3.173
		C198.875,329.964,195.423,329.322,190.686,328.251z" style="opacity: 1;"></path>
	<path class="stblack" d="M474.696,378.231c10.475-21.093,27.235-128.47,31.425-141.893s25.157-26.585,37.727-24.667
		c0.805-7.251,2.422-26.429,14.647-34.775c27.616-18.855,92.933-15.338,113.127-3.835c12.452,7.092,10.475,32.598,10.475,32.598
		s41.052-4.198,37.71,28.761c-4.588,45.246-29.961,149.563-40.436,162.986h-215.15L474.696,378.231z" style="opacity: 1;"></path>
	<path class="stblack" d="M75.999,315.278c3.775-0.098,7.808,0.035,11.487,0.377c3.904,0.363,7.408,0.961,9.782,1.769
		c12.24,4.16,12.582,8.781-3.744,8.781c-6.21-0.101-15.767-0.259-26.672-0.439c-4.853,0.055-9.974,0.112-15.186,0.17
		c-8.328-0.164-16.892-0.333-24.969-0.492c-2.839-0.005-5.618-0.008-8.305-0.013c-1.344,0.008-2.665,0.016-3.96,0.022
		c-0.648,0.006-1.288,0.011-1.921,0.016c-0.33,0.017-0.577,0.044-0.851,0.109c-1.054,0.256-1.919,0.98-2.381,1.814
		c-0.234,0.417-0.373,0.852-0.436,1.284c-0.047,0.246-0.031,0.364-0.05,0.721c0.001,0.489,0.002,0.966,0.003,1.431
		c0,3.045-0.075,6.072-0.151,9.139l-0.049,2.202c-0.023,0.357,0.034,0.708,0.118,1.054c0.164,0.697,0.577,1.347,1.125,1.851
		c0.312,0.281,0.673,0.51,1.066,0.667l0.613,0.189l1.276,0.282c1.823,0.388,3.684,0.784,5.59,1.19
		c3.807,0.836,7.801,1.713,12.053,2.646c7.015,1.724,14.74,3.622,23.509,5.776c7.58,1.68,15.937,3.531,25.286,5.602
		c12.861,3.005,20.603,5.217,27.281,6.901c5.247,1.218,9.803,2.277,15.539,3.608c5.945,1.47,13.105,3.495,23.723,5.948
		c7.396,1.592,14.836,3.195,21.989,4.735c8.7,2.084,16.977,4.067,24.227,5.804c4.36,0.948,8.352,1.816,11.845,2.575
		c1.731,0.369,3.338,0.712,4.806,1.025c1.31,0.265,2.511,0.417,3.575,0.519c0.671,0.063,1.375,0.107,2.108,0.123
		c0.636,0.033,1.463-0.039,2.383-0.095c1.777-0.11,3.673-0.23,5.67-0.355c3.996-0.26,8.4-0.574,13.083-1.002
		c6.66-0.607,13.877-1.587,21.328-2.308c7.009-0.592,14.211-1.199,21.309-1.799c4.891-0.587,9.734-1.167,14.428-1.729
		c4.253-0.424,8.407-0.543,12.346-0.934c11.546-1.142,21.407-2.395,27.804-2.945c4.337-0.374,8.456-0.454,12.265-0.801
		c8.378-0.76,15.343-1.682,20.458-1.892c5.116-0.21,8.356,0.002,9.233,0.92c1.298,1.352-0.439,3.889-4.999,5.957
		c-3.034,1.374-7.342,2.25-12.806,2.72c-5.597,0.481-11.839,1.248-19.434,1.805c-5.79,0.426-12.374,0.606-19.999,1.167
		c-6.807,0.598-14.461,1.272-23.176,2.038c-8.626,0.663-15.029,0.854-20.334,1.251c-7.765,0.691-13.217,1.175-20.021,1.781
		c-6.447,0.484-14.123,0.776-26.098,1.716c-3.165,0.249-6.325,0.571-9.457,0.89l-2.343,0.237c-0.337,0.044-0.866,0.074-1.32,0.08
		l-1.292,0.006c-1.72-0.027-3.428-0.199-5.092-0.511c-4.737-1.046-8.765-2.355-12.93-3.324c-4.826-1.142-9.419-1.928-13.5-2.893
		c-10.815-2.559-18.423-4.657-20.167-5.055c-1.621-0.371-8.985-1.784-19.611-4.23c-6.391-1.472-13.919-3.499-22.205-5.385
		c-5.612-1.174-11.541-2.415-17.624-3.689c-5.913-1.33-11.91-2.971-17.978-4.316c-6.216-1.379-12.504-2.456-18.574-3.777
		c-6.052-1.412-11.949-2.786-17.535-4.089c-5.558-1.193-10.876-2.029-15.671-3.051c-6.525-1.448-12.196-2.706-16.625-3.689
		c-2.21-0.514-4.109-0.958-5.652-1.316c-0.737-0.151-1.951-0.517-2.65-0.855c-0.782-0.352-1.401-0.721-1.869-1.041
		c-1.426-0.959-2.972-2.434-4.071-4.537c-0.549-1.044-0.984-2.239-1.218-3.54c-0.115-0.648-0.175-1.332-0.194-2.008
		c-0.009-0.481-0.019-0.972-0.029-1.474c-0.035-2.002-0.072-4.154-0.111-6.41c-0.013-1.126-0.026-2.28-0.039-3.453
		c0.003-0.65-0.028-1.037,0.006-1.915c0.025-0.865,0.139-1.742,0.362-2.595c0.995-4.231,4.528-7.781,8.801-8.851
		c1.058-0.298,2.155-0.387,3.234-0.404l2.275,0.041c1.499,0.013,2.988,0.024,4.453,0.036c11.718-0.025,22.008-0.339,25.383-0.339
		c2.736,0,8.791-0.063,15.524-0.426C65.377,315.99,71.13,315.404,75.999,315.278z" style="opacity: 1;"></path>
	<path class="stblack" d="M162.413,364.398c-6.876-1.552-13.615-3.073-20.17-4.553c-9.495-2.043-18.61-4.004-27.224-5.856
		c-10.005-2.258-19.283-4.58-27.719-6.56c-8.155-1.915-15.525-3.499-21.858-5.067c-16.496-4.085-26.218-6.844-26.078-7.499
		c0.129-0.603,8.642,0.592,23.08,3.154c6.847,1.215,15.007,2.826,24.257,4.608c5.984,1.147,12.422,2.381,19.24,3.685
		c5.719,1.186,11.705,2.43,17.919,3.719c5.951,1.202,12.112,2.447,18.444,3.725c6.952,1.502,14.112,3.05,21.429,4.63
		c7.437,1.573,13.277,2.81,18.206,3.853c7.288,1.666,12.579,2.875,18.101,4.137c2.623,0.541,5.414,1.313,8.054,1.634
		c1.37,0.156,2.847,0.229,4.37,0.148c1.706-0.107,3.518-0.221,5.468-0.344c4.194-0.24,9.024-0.516,14.796-0.847
		c6.876-0.469,13.61-0.926,20.164-1.374c7.998-0.447,15.73-0.877,23.124-1.291c8.275-0.486,16.126-0.948,23.46-1.379
		c7.76-0.342,14.941-0.659,21.426-0.945c5.099-0.237,9.765-0.454,13.949-0.648c14.974-0.525,23.756-0.533,23.797,0.093
		c0.036,0.549-6.681,1.314-18.408,2.51c-6.892,0.704-15.507,1.675-25.52,2.52c-8.456,0.617-17.892,1.306-28.105,2.053
		c-7.892,0.633-16.25,1.303-24.971,2.004c-9.178,0.562-18.761,1.15-28.636,1.756c-7.382,0.582-13.223,1.044-18.165,1.434
		c-0.759,0.052-1.497,0.104-2.216,0.155c-0.818,0.044-1.587,0.044-2.336,0.027c-1.502-0.039-2.928-0.18-4.289-0.398
		c-2.794-0.51-4.836-1.019-7.136-1.499c-4.465-0.958-8.773-1.882-14.097-3.026C179.001,367.781,172.044,366.363,162.413,364.398z" style="opacity: 1;"></path>
	<path class="stblack" d="M565.753,74.258c-1.32-1.876-2.557-3.777-3.865-5.547c-1.915-2.542-4.176-4.623-5.976-6.88
		c-2.227-2.512-4.049-5.138-6.01-7.234c-1.824-2.103-3.775-3.648-5.209-5.298c-3.826-4.197-6.089-6.838-5.528-7.749
		c0.514-0.846,3.594-0.092,8.107,2.412c2.155,1.172,4.509,2.874,7.146,4.851c1.694,1.291,3.63,2.579,5.419,4.231
		c1.524,1.368,3.043,2.882,4.558,4.511c1.456,1.552,3.176,2.982,4.6,4.753c1.578,1.942,3.168,3.971,4.693,6.117
		c1.535,2.188,2.836,3.845,3.816,5.325c1.406,2.228,2.116,4.039,3.081,5.777c0.917,1.661,1.992,3.318,3.141,5.822
		c0.645,1.332,1.268,2.919,2.185,4.73c1.084,2.161,1.992,4.359,2.874,6.494c0.513,1.311,0.988,2.613,1.423,3.897
		c0.347,1.314,0.688,2.603,1.021,3.862c0.711,2.821,1.775,5.389,2.089,7.964c0.426,2.698,0.631,5.22,0.899,7.465
		c0.278,1.754,0.331,3.389,0.338,4.854c-0.074,5.258-0.609,8.294-1.609,8.366c-0.877,0.068-1.68-2.158-2.847-5.964
		c-0.678-2.24-1.604-4.993-2.724-8.136c-0.939-2.644-1.237-5.773-2.551-8.893c-0.947-2.428-2.024-4.959-3.111-7.593
		c-1.249-2.728-2.089-5.774-3.475-8.699c-1.125-2.149-2.284-3.704-3.048-5.126c-1.896-3.483-3.064-5.356-4.905-8.395
		C569.211,78.579,567.57,76.891,565.753,74.258z" style="opacity: 1;"></path>
	<path class="stblack" d="M227.304,63.86c-2.898,0.18-5.775,0.448-8.64,0.623c-2.709,0.164-5.407,0.235-8.082,0.393
		c-3.319,0.197-6.605,0.48-9.865,0.664c-3.116,0.177-6.208,0.257-9.263,0.423c-2.824,0.151-5.614,0.39-8.38,0.53
		c-2.631,0.134-5.239,0.172-7.813,0.293c-3.212,0.151-6.375,0.391-9.497,0.533c-2.736,0.125-5.443,0.155-8.105,0.273
		c-2.734,0.121-5.422,0.331-8.073,0.446c-2.298,0.101-4.571,0.107-6.804,0.204c-2.494,0.109-4.94,0.304-7.348,0.409
		c-4.146,0.18-8.167,0.262-12.04,0.434c-3.848,0.172-7.975,0.42-12.057,0.615c-3.374,0.161-6.72,0.256-9.836,0.495
		c-3.602,0.279-6.9,0.721-9.611,1.188c-4.936,0.852-7.913,1.999-7.148,3.894c0.562,1.396,3.721,2.034,8.127,2.21
		c1.723,0.069,3.63-0.024,5.652-0.076c2.399-0.063,4.959-0.107,7.533-0.287c2.683-0.186,5.383-0.513,7.957-0.759
		c2.896-0.278,5.633-0.481,7.98-0.743c3.534-0.394,9.702-1.044,17.438-1.713c1.975-0.172,4.059-0.259,6.22-0.442
		c2.415-0.207,4.929-0.511,7.529-0.73c3.34-0.282,6.817-0.484,10.368-0.786c2.259-0.191,4.544-0.478,6.853-0.674
		c2.07-0.177,4.159-0.265,6.248-0.445c1.865-0.161,3.732-0.413,5.602-0.576c2.013-0.175,4.03-0.259,6.032-0.432
		c2.442-0.211,4.864-0.513,7.263-0.718c1.914-0.164,3.814-0.235,5.683-0.391c2.099-0.177,4.158-0.44,6.179-0.604
		c2.642-0.216,5.212-0.328,7.676-0.514c3.818-0.29,7.387-0.633,10.626-0.831c2.066-0.125,4.001-0.137,5.771-0.216
		c3.917-0.174,7.922-0.405,11.98-0.54c2.361-0.077,4.744-0.06,7.127-0.136c2.097-0.066,4.194-0.226,6.296-0.298
		c2.59-0.09,5.185-0.093,7.761-0.2c2.302-0.096,4.59-0.293,6.864-0.413c4.165-0.219,8.271-0.368,12.249-0.611
		c2.858-0.174,5.648-0.44,8.359-0.609c2.256-0.14,4.46-0.185,6.586-0.312c2.393-0.145,4.692-0.369,6.889-0.487
		c2.101-0.112,4.109-0.118,6.001-0.196c2.761-0.114,5.313-0.454,7.59-0.79c1.655-0.245,3.166-0.443,4.493-0.762
		c2.052-0.492,3.677-1.051,4.761-1.608c2.562-1.317,2.112-2.627-2.822-3.037c-1.798-0.15-4.188-0.088-7.249,0.044
		c-2.526,0.109-5.51,0.237-8.983,0.592c-1.551,0.158-3.049,0.404-4.513,0.554c-3.296,0.338-6.392,0.565-9.339,0.863
		c-2.851,0.29-5.561,0.653-8.197,0.907c-3.589,0.347-7.035,0.571-10.465,0.857c-2.745,0.229-5.476,0.53-8.278,0.723
		c-1.396,0.096-2.81,0.103-4.241,0.205c-3.053,0.218-6.197,0.538-9.525,0.781c-3.891,0.282-8.032,0.489-12.541,0.8
		c-2.203,0.153-4.489,0.399-6.884,0.557C232.826,63.602,230.131,63.683,227.304,63.86z" style="opacity: 1;"></path>
	<path class="stblack" d="M221.692,345.276c-2.85-0.584-5.656-1.156-8.419-1.721c-2.258-0.51-4.489-1.011-6.691-1.508
		c-1.383-0.26-2.758-0.517-4.121-0.773c-1.563-0.36-3.113-0.718-4.648-1.073c-2.175-0.431-4.323-0.857-6.443-1.276
		c-1.725-0.407-3.433-0.811-5.123-1.208c-1.645-0.338-3.273-0.671-4.886-1c-3.138-0.764-6.214-1.511-9.229-2.245
		c-2.428-0.554-4.816-1.098-7.171-1.633c-3.765-0.958-7.44-1.893-11.033-2.807c-2.231-0.519-4.43-1.029-6.601-1.533
		c-1.988-0.516-3.954-1.027-5.895-1.532c-2.174-0.483-4.512-1.003-6.908-1.535c-2.392-0.546-4.826-1.172-7.236-1.657
		c-2.09-0.421-3.3-0.57-4.587-1.095c-1.269-0.491-2.427-1.153-3.419-1.904c-1.361-1.033-2.349-2.224-3.243-3.188
		c-1.462-1.609-2.589-2.827-3.92-2.191c-0.879,0.429-1.391,2.191-0.749,4.742c0.445,1.739,1.443,3.625,3.093,5.519
		c1.582,1.854,3.897,3.696,6.55,4.722c0.943,0.371,2.069,0.647,2.9,0.8c0.8,0.153,1.603,0.308,2.43,0.465
		c1.939,0.409,3.953,0.929,5.774,1.264c2.332,0.428,4.404,0.644,6.22,0.928c1.037,0.164,2.424,0.533,3.943,0.808
		c1.519,0.275,3.169,0.453,5.097,0.82c1.667,0.363,3.59,0.783,5.515,1.202c1.717,0.298,3.412,0.593,5.298,0.921
		c1.731,0.388,3.642,0.817,5.487,1.231c2.076,0.379,4.101,0.746,6.287,1.145c2.035,0.456,4.228,0.948,6.327,1.418
		c2.003,0.366,3.912,0.716,5.945,1.087c1.705,0.39,3.534,0.808,5.245,1.197c1.521,0.262,2.926,0.505,4.438,0.765
		c2.124,0.467,4.352,0.958,6.435,1.417c1.752,0.305,3.368,0.585,5.072,0.88c2.369,0.516,4.8,1.044,7.033,1.532
		c1.817,0.319,3.465,0.609,5.164,0.907c1.559,0.36,3.18,0.735,4.617,1.068c2.185,0.409,4.104,0.768,5.955,1.115
		c1.682,0.409,3.507,0.852,5.232,1.272c1.178,0.222,2.247,0.424,3.44,0.648c1.207,0.317,2.541,0.667,3.759,0.988
		c1.626,0.374,3.378,0.702,5.263,0.86c1.967,0.23,4.35,0.172,6.129-0.005c1.393-0.134,2.664-0.257,4.05-0.391
		c1.824-0.092,3.762-0.186,5.562-0.276c1.998-0.2,3.859-0.387,5.81-0.582c1.558-0.085,3.218-0.177,4.736-0.26
		c1.405-0.159,2.674-0.305,4.036-0.459c1.574-0.085,3.237-0.177,4.744-0.259c1.936-0.192,3.695-0.368,5.497-0.547
		c1.555-0.063,3.178-0.129,4.617-0.188c1.213-0.076,2.251-0.256,3.373-0.311c2.043-0.098,4.048-0.15,5.739-0.368
		c1.693-0.218,3.075-0.601,4.39-0.902c1.958-0.448,3.613-0.852,4.657-1.382c3.008-1.529,2.024-3.147-4.111-3.401
		c-1.693-0.069-3.77,0.055-6.271,0.224c-1.846,0.125-3.925,0.23-6.233,0.514c-1.13,0.167-2.239,0.331-3.323,0.491
		c-1.999,0.192-3.922,0.377-5.79,0.557c-2.883,0.317-5.633,0.62-8.302,0.913c-1.688,0.115-3.345,0.229-4.986,0.341
		c-2.47,0.222-4.902,0.44-7.347,0.659c-1.747,0.091-3.502,0.185-5.28,0.279c-1.971,0.156-3.969,0.316-6.018,0.48
		c-2.09,0.191-3.603,0.207-5.488-0.009c-1.326-0.126-2.653-0.379-4.314-0.765c-1.737-0.432-3.529-0.879-5.383-1.341
		c-2.3-0.494-4.697-1.007-7.212-1.546C225.407,346.161,223.581,345.725,221.692,345.276z" style="opacity: 1;"></path>
	<path class="stblack" d="M226.789,310.024c0.737,0.093,1.45,0.383,2.153,0.503c1.014,0.172,1.994,0.185,2.913,0.398
		c1.07,0.249,2.063,0.705,2.969,0.991c0.876,0.278,1.667,0.385,2.349,0.678c1.779,0.767,2.844,1.563,2.844,2.234
		c0,0.617-0.908,1.115-2.474,1.439c-0.742,0.153-1.631,0.174-2.64,0.241c-0.653,0.043-1.357,0.158-2.102,0.161
		c-0.627,0.003-1.28-0.101-1.961-0.129c-0.652-0.027-1.329,0.024-2.022-0.033c-0.764-0.062-1.544-0.235-2.345-0.336
		c-0.814-0.103-1.457-0.109-1.995-0.204c-0.798-0.142-1.369-0.369-1.971-0.506c-0.573-0.129-1.177-0.169-2.011-0.306
		c-0.448-0.074-0.958-0.24-1.576-0.319c-0.737-0.093-1.465-0.104-2.166-0.215c-0.854-0.134-1.67-0.372-2.455-0.529
		c-0.879-0.175-1.721-0.271-2.495-0.469c-0.819-0.207-1.562-0.516-2.238-0.74c-0.531-0.175-1.026-0.265-1.457-0.446
		c-1.54-0.65-2.395-1.327-2.313-1.948c0.073-0.546,0.829-0.778,2.123-1.048c0.76-0.159,1.72-0.45,2.795-0.505
		c0.907-0.047,1.894,0.126,2.978,0.158c0.838,0.024,1.741-0.112,2.66-0.039c0.966,0.077,1.958,0.363,2.994,0.494
		c0.777,0.082,1.406-0.046,1.925-0.005c1.279,0.099,1.976,0.298,3.119,0.398C225.008,309.996,225.762,309.892,226.789,310.024z" style="opacity: 1;"></path>
	<path class="stblack" d="M226.027,295.789c0.897-0.071,1.774,0.088,2.623,0.063c1.23-0.035,2.384-0.202,3.492-0.166
		c1.28,0.041,2.489,0.312,3.558,0.41c1.039,0.099,1.956,0.041,2.742,0.163c2.099,0.364,3.128,0.639,3.505,1.216
		c0.351,0.522-0.752,1.636-2.631,2.335c-0.876,0.339-1.947,0.574-3.121,0.835c-0.772,0.183-1.578,0.424-2.445,0.57
		c-0.732,0.121-1.493,0.14-2.279,0.238c-0.752,0.095-1.528,0.27-2.32,0.349c-0.873,0.09-1.788,0.055-2.702,0.129
		c-0.93,0.068-1.654,0.196-2.273,0.213c-0.91,0.044-1.581-0.046-2.276-0.041c-0.665-0.003-1.335,0.117-2.277,0.207
		c-0.505,0.049-1.105,0.009-1.794,0.112c-0.816,0.136-1.601,0.347-2.381,0.454c-0.941,0.125-1.855,0.246-2.727,0.361
		c-0.965,0.164-1.815,0.469-2.672,0.604c-0.877,0.169-1.703,0.327-2.441,0.469c-0.562,0.151-1.003,0.404-1.483,0.516
		c-1.64,0.446-2.713,0.827-3.214,0.36c-0.389-0.369,0.015-1.19,1.081-2.54c0.674-0.622,1.51-1.734,2.724-2.349
		c1.011-0.622,2.237-0.991,3.516-1.442c0.991-0.413,2.009-0.835,3.129-1.141c1.178-0.322,2.432-0.314,3.699-0.54
		c0.942-0.153,1.662-0.439,2.293-0.547c1.553-0.271,2.414-0.202,3.798-0.393C223.899,296.135,224.78,295.885,226.027,295.789z" style="opacity: 1;"></path>
	<path class="stblack" d="M221.327,285.889c1.037-0.183,2.08-0.121,3.068-0.246c1.426-0.159,2.776-0.442,4.072-0.497
		c1.507-0.057,2.932,0.115,4.201,0.166c1.23,0.041,2.317-0.054,3.277,0.065c2.496,0.308,4.005,0.83,4.072,1.496
		c0.06,0.615-1.118,1.343-3.181,2.059c-0.974,0.339-2.163,0.579-3.487,0.907c-0.857,0.213-1.776,0.502-2.747,0.712
		c-0.817,0.177-1.693,0.237-2.577,0.413c-0.842,0.181-1.72,0.369-2.614,0.562c-0.983,0.189-2.02,0.252-3.053,0.434
		c-1.046,0.191-1.855,0.409-2.55,0.513c-1.021,0.181-1.791,0.192-2.575,0.301c-0.743,0.117-1.478,0.364-2.532,0.606
		c-0.573,0.117-1.22,0.251-1.981,0.484c-0.913,0.27-1.742,0.674-2.576,0.984c-1.04,0.341-2.021,0.686-2.953,1.06
		c-1.059,0.398-1.914,1.003-2.838,1.387c-0.942,0.458-1.824,0.888-2.616,1.275c-0.584,0.364-1.079,0.756-1.594,1.032
		c-1.774,1.052-2.992,1.664-3.497,1.246c-0.423-0.35-0.006-1.281,0.919-2.897c0.618-0.855,1.309-2.122,2.48-3.166
		c0.968-0.921,2.227-1.68,3.571-2.521c1.015-0.7,2.107-1.401,3.311-2.037c1.301-0.541,2.72-0.988,4.154-1.407
		c1.062-0.366,1.854-0.83,2.574-1.03c1.764-0.552,2.777-0.661,4.363-1.046C218.876,286.513,219.881,286.162,221.327,285.889z" style="opacity: 1;"></path>
	<path class="stblack" d="M369.965,192.797c17.44,3.114,19.931,16.195,13.079,18.686c-6.851,2.493-9.344,9.968-14.326,13.082
		c-4.983,3.114-14.949,1.868-14.949,1.868S360.621,201.516,369.965,192.797z" style="opacity: 1;"></path>
	<path class="stblack" d="M348.786,235.777c17.441,4.982,19.309,8.097,15.572,16.195c-3.737,8.098-13.079,17.441-24.291,15.573
		C328.855,265.675,348.786,235.777,348.786,235.777z" style="opacity: 1;"></path>
	<path class="stblack" d="M121.825,118.069l-0.201-0.83l-0.087-0.794c-0.054-0.323-0.155-0.634-0.204-0.951c-0.047-0.304-0.043-0.615-0.084-0.913
		l-0.156-0.811l-0.036-0.776c-0.032-0.316-0.112-0.618-0.14-0.926l-0.021-0.806l-0.115-0.789l-0.004-0.68l-0.106-0.716
		c-0.032-0.409-0.015-0.814-0.047-1.196c-0.032-0.38-0.103-0.781-0.144-1.182c-0.035-0.331-0.034-0.667-0.114-0.964
		c-0.094-0.346-0.281-0.642-0.49-0.877c-0.381-0.428-0.95-0.628-1.98-0.372c-0.759,0.188-1.149,0.571-1.312,1.041l-0.047,0.573
		l0.038,0.748l0.285,0.746l0.275,0.751c0.157,0.327,0.412,0.899,0.652,1.631l0.141,0.598l0.276,0.707
		c0.1,0.316,0.155,0.655,0.261,0.991l0.256,0.642l0.142,0.6l0.223,0.522l0.139,0.581l0.274,0.678l0.122,0.547l0.229,0.579
		l0.158,0.74c0.097,0.366,0.226,0.7,0.282,1.014l0.028,0.573c0.032,0.387,0.096,0.776,0.105,1.18l-0.037,0.721l0.063,0.618
		l-0.012,0.778l0.116,0.667c0.054,0.407,0.069,0.816,0.138,1.202l0.198,0.801l0.067,0.647l0.155,0.663l0.013,0.598l0.307,0.707
		l0.339,0.391l0.79,0.339c0.667,0.14,1.377-0.028,1.674-0.573c0.108-0.199,0.112-0.439,0.088-0.741
		c-0.02-0.249-0.043-0.543-0.179-0.868l-0.228-0.412c-0.13-0.308-0.204-0.604-0.319-0.879l-0.36-0.757
		c-0.131-0.336-0.198-0.671-0.298-0.995l-0.26-0.784l-0.045-0.417c-0.069-0.293-0.193-0.585-0.272-0.906
		c-0.091-0.374-0.139-0.779-0.237-1.213l-0.192-0.656L121.825,118.069z" style="opacity: 1;"></path>
	<path class="stblack" d="M137.993,111.481l-0.408-1.431c-0.123-0.461-0.196-0.931-0.34-1.39c-0.123-0.413-0.315-0.811-0.454-1.221l-0.499-1.481
		c-0.194-0.506-0.441-0.995-0.588-1.5c-0.141-0.413-0.181-0.835-0.278-1.24c-0.069-0.24-0.169-0.618-0.239-1.052
		c-0.053-0.344-0.002-0.707-0.034-1.041c0.002-0.555-0.035-1.024,0.002-1.164l0.192-0.742c0.055-0.319,0.138-0.603,0.233-0.882
		l0.505-0.77l0.289-0.472c0.316-0.379,0.709-0.724,1.108-1.104l0.578-0.705c0.252-0.297,0.485-0.573,0.663-0.895
		c0.317-0.641,0.4-1.421-0.041-2.316c-0.196-0.39-0.541-0.508-1.066-0.577c-0.394-0.055-0.912-0.118-1.43,0.039
		c-0.457,0.115-0.893,0.383-1.374,0.667c-0.599,0.297-1.244,0.708-1.783,1.213c-0.469,0.506-0.818,1.085-1.112,1.644
		c-0.457,0.792-0.804,1.548-0.883,2.098c-0.099,0.375-0.103,0.865-0.135,1.395c-0.064,0.465-0.148,0.962-0.134,1.515
		c0.006,0.451,0.188,0.891,0.235,1.368c0.099,0.516,0.088,1.087,0.237,1.628c0.129,0.497,0.36,0.981,0.53,1.47
		c0.107,0.341,0.121,0.716,0.25,1.049c0.21,0.604,0.547,1.153,0.8,1.724c0.201,0.473,0.267,0.838,0.434,1.254
		c0.147,0.355,0.381,0.683,0.512,1.041c0.169,0.453,0.226,0.929,0.371,1.36c0.152,0.456,0.386,0.874,0.514,1.289
		c0.109,0.374,0.128,0.783,0.232,1.18c0.116,0.418,0.319,0.83,0.426,1.27c0.118,0.497,0.129,1.021,0.232,1.529
		c0.077,0.402,0.255,0.789,0.32,1.194c0.064,0.366,0.018,0.745,0.07,1.106c0.054,0.404,0.208,0.792,0.252,1.186
		c0.037,0.319-0.028,0.641-0.001,0.947c0.04,0.391,0.166,0.767,0.191,1.137c0.023,0.371-0.062,0.73-0.056,1.07
		c0.005,0.357,0.062,0.697,0.046,1.013c-0.009,0.325-0.092,0.618-0.124,0.882c-0.024,0.401,0.093,0.762,0.144,1.062l0.095,0.601
		c0.212,0.316,0.159,0.737,0.133,1.111c-0.095,0.363,0.761,0.715,1.559-0.021c0.418-0.375,0.764-0.893,0.936-1.508
		c0.099-0.368,0.108-0.784,0.122-1.218c0.028-0.625,0.07-1.387,0.036-2.157c-0.035-0.794-0.154-1.584-0.216-2.206
		c-0.04-0.645-0.069-1.114-0.076-1.22l-0.195-1.156c-0.086-0.669-0.094-1.365-0.162-2.116c-0.043-0.275-0.088-0.552-0.135-0.846
		c-0.023-0.36-0.047-0.751-0.072-1.142c-0.072-0.374-0.146-0.759-0.225-1.167C138.116,112.373,138.086,111.934,137.993,111.481z" style="opacity: 1;"></path>
	<path class="stblack" d="M136.558,109.933l-0.563,0.147l-0.557,0.043l-0.48,0.14l-0.599,0.046l-0.687,0.155l-0.577,0.008l-0.491,0.084l-0.513-0.032
		l-0.596,0.076l-0.436-0.041l-0.541,0.08h-0.594l-0.338,0.103c-0.302,0.05-0.614,0.084-0.879,0.24l-0.384,0.368l-0.368,0.585
		c-0.159,0.503-0.17,1.201,0.06,2.172c0.1,0.424,0.252,0.644,0.469,0.877l0.572,0.491l0.535,0.054l0.715,0.099l0.567-0.219
		l0.667-0.181l0.394-0.256l0.488-0.085l0.426-0.267l0.577-0.095l0.53-0.267l0.41-0.003l0.682-0.281l0.568-0.058l0.459-0.243
		l0.593-0.084l0.536-0.281l0.501-0.06l0.514-0.262l0.64-0.079l0.476-0.227l0.468-0.009l0.472-0.211l0.404,0.009l0.452-0.205
		l0.462,0.002l0.419-0.137l0.403-0.009l0.426-0.41l0.256-0.371c0.213-0.682,0.089-1.557-0.392-1.972l-0.55-0.27l-0.409,0.117
		l-0.792,0.172c-0.296,0.077-0.588,0.207-0.827,0.263l-0.48,0.055l-0.442,0.145c-0.262,0.052-0.549,0.013-0.851,0.017l-0.334,0.055
		l-0.468-0.052l-0.463,0.073L136.558,109.933z" style="opacity: 1;"></path>
	<path class="stblack" d="M156.126,113.155c-0.077-0.29-0.153-0.581-0.206-0.872l-0.079-0.835l-0.121-1.016c-0.01-0.322-0.002-0.644,0.02-0.959
		l-0.006-0.863l0.121-0.797c0.039-0.328,0.077-0.644,0.114-0.962l0.228-0.797l0.172-0.792l0.261-0.634l0.222-0.689
		c0.136-0.388,0.362-0.719,0.545-1.046c0.187-0.319,0.292-0.712,0.53-1.018l0.498-0.776c0.129-0.316,0.237-0.604,0.249-0.918
		c0.036-0.551-0.178-1.147-1.022-1.78c-0.623-0.465-1.197-0.456-1.723-0.156l-0.542,0.487l-0.562,0.762
		c-0.154,0.303-0.241,0.641-0.352,0.943c-0.113,0.344-0.206,0.669-0.261,0.958c-0.084,0.435-0.229,1.18-0.35,2.097l-0.17,0.716
		c-0.006,0.279-0.012,0.596-0.018,0.896c-0.02,0.391-0.126,0.787-0.114,1.202l0.067,0.801l-0.03,0.716l0.115,0.644l0.032,0.685
		l0.165,0.817l0.074,0.636l0.178,0.682c0.042,0.292,0.08,0.577,0.139,0.847c0.099,0.416,0.229,0.798,0.286,1.153l0.08,0.641
		c0.077,0.434,0.152,0.866,0.233,1.325l0.1,0.812l0.185,0.693l0.211,0.871l0.314,0.726c0.188,0.44,0.39,0.876,0.608,1.283
		c0.152,0.295,0.372,0.543,0.563,0.797l0.403,0.659l0.528,0.614l0.404,0.593l0.757,0.519l0.579,0.15
		c0.312,0.005,0.608-0.071,0.863-0.205c0.6-0.314,0.969-0.953,0.879-1.548l-0.35-0.588l-0.577-0.579l-0.394-0.213l-0.66-0.614
		l-0.643-0.533l-0.609-0.857l-0.477-0.699l-0.146-0.407c-0.13-0.282-0.355-0.536-0.469-0.861c-0.134-0.379-0.275-0.778-0.43-1.218
		l-0.246-0.671L156.126,113.155z" style="opacity: 1;"></path>
	<path class="stblack" d="M172.27,109.709c-0.312-0.312-0.542-0.694-0.828-1.003c-0.413-0.446-0.87-0.817-1.223-1.243
		c-0.411-0.497-0.708-1.048-1.025-1.497c-0.308-0.434-0.639-0.77-0.848-1.139c-0.544-0.961-0.735-1.663-0.477-1.922
		c0.239-0.238,0.855-0.095,1.705,0.353c0.403,0.213,0.823,0.53,1.314,0.872c0.318,0.221,0.687,0.432,1.031,0.702
		c0.29,0.227,0.552,0.506,0.856,0.765c0.289,0.248,0.62,0.475,0.918,0.748c0.327,0.303,0.623,0.656,0.954,0.988
		c0.337,0.336,0.629,0.571,0.842,0.806c0.315,0.346,0.495,0.647,0.723,0.92c0.217,0.262,0.48,0.497,0.813,0.855l0.611,0.702
		c0.305,0.304,0.636,0.573,0.918,0.872c0.345,0.364,0.636,0.76,0.942,1.109c0.343,0.393,0.695,0.737,0.983,1.1
		c0.304,0.383,0.54,0.784,0.775,1.125l0.517,0.719c0.489,0.838,0.659,1.444,0.418,1.685c-0.213,0.213-0.637,0.039-1.325-0.316
		c-0.404-0.21-0.945-0.435-1.463-0.806c-0.438-0.314-0.838-0.751-1.332-1.163c-0.383-0.319-0.849-0.595-1.253-0.966
		c-0.425-0.388-0.789-0.876-1.227-1.313c-0.334-0.322-0.674-0.502-0.902-0.712c-0.563-0.514-0.82-0.855-1.32-1.319
		C173.095,110.383,172.705,110.145,172.27,109.709z" style="opacity: 1;"></path>
	<path class="stblack" d="M175.22,107.404c0.254-0.377,0.593-0.686,0.849-1.037c0.369-0.508,0.655-1.041,1.015-1.485
		c0.42-0.516,0.913-0.928,1.303-1.339c0.376-0.398,0.651-0.8,0.98-1.087c0.857-0.745,1.519-1.082,1.823-0.879
		c0.279,0.188,0.248,0.835-0.045,1.778c-0.139,0.446-0.379,0.932-0.63,1.496c-0.162,0.364-0.307,0.778-0.513,1.179
		c-0.174,0.338-0.404,0.658-0.607,1.016c-0.194,0.341-0.36,0.719-0.579,1.074c-0.241,0.391-0.539,0.76-0.808,1.161
		c-0.274,0.407-0.455,0.749-0.649,1.01c-0.288,0.388-0.554,0.633-0.785,0.917c-0.221,0.273-0.407,0.584-0.703,0.992
		c-0.159,0.221-0.379,0.448-0.588,0.759c-0.248,0.369-0.456,0.754-0.703,1.1c-0.301,0.421-0.64,0.795-0.933,1.175
		c-0.327,0.424-0.607,0.849-0.916,1.212c-0.327,0.385-0.681,0.705-0.978,1.011l-0.621,0.669c-0.745,0.664-1.316,0.962-1.6,0.77
		c-0.249-0.167-0.154-0.628,0.077-1.39c0.135-0.448,0.262-1.037,0.537-1.631c0.233-0.503,0.596-0.995,0.917-1.576
		c0.248-0.448,0.438-0.973,0.733-1.455c0.311-0.506,0.729-0.972,1.085-1.502c0.259-0.402,0.377-0.778,0.544-1.051
		c0.41-0.672,0.702-0.999,1.074-1.597C174.701,108.373,174.866,107.931,175.22,107.404z" style="opacity: 1;"></path>
	<path class="stblack" d="M199.052,106.403l-0.781-0.038c-0.362,0.017-0.701,0.115-1.034,0.101c-0.386-0.019-0.761-0.158-1.092-0.215
		c-0.32-0.055-0.6-0.027-0.854-0.112c-0.663-0.222-1.076-0.54-1.117-0.904c-0.037-0.334,0.244-0.704,0.756-1.044
		c0.243-0.162,0.543-0.27,0.881-0.413l0.7-0.311l0.672-0.139l0.684-0.197l0.815-0.068l0.687-0.103l0.704,0.063
		c0.204,0.008,0.41-0.035,0.701-0.049l0.557,0.003l0.746-0.115c0.299-0.019,0.594,0.022,0.872,0.022
		c0.312,0,0.603-0.038,0.881-0.016c0.294,0.025,0.573,0.11,0.822,0.158l0.534,0.084c0.582,0.183,0.941,0.453,0.979,0.794
		c0.033,0.298-0.197,0.503-0.608,0.786c-0.241,0.166-0.538,0.423-0.898,0.568c-0.304,0.121-0.658,0.134-1.031,0.235
		c-0.289,0.076-0.584,0.245-0.906,0.304c-0.338,0.063-0.703,0.017-1.07,0.058l-0.66,0.21c-0.448,0.084-0.704,0.054-1.105,0.123
		C199.667,106.224,199.417,106.362,199.052,106.403z" style="opacity: 1;"></path>
	<path class="stblack" d="M200.042,113.863l-0.673-0.06c-0.312,0.006-0.603,0.096-0.89,0.071c-0.334-0.028-0.656-0.177-0.942-0.243l-0.736-0.136
		c-0.571-0.241-0.928-0.57-0.962-0.932c-0.033-0.336,0.209-0.696,0.649-1.024c0.209-0.155,0.467-0.252,0.758-0.387l0.603-0.292
		l0.578-0.12l0.588-0.178l0.702-0.046l0.592-0.082l0.607,0.08l0.603-0.028l0.48,0.019l0.642-0.095l0.752,0.046l0.758,0.009
		l0.708,0.18l0.46,0.098c0.502,0.2,0.811,0.478,0.844,0.819c0.029,0.3-0.17,0.499-0.523,0.768c-0.207,0.158-0.462,0.407-0.773,0.541
		c-0.262,0.114-0.566,0.118-0.887,0.207l-0.78,0.281c-0.291,0.054-0.606-0.003-0.921,0.027l-0.569,0.192
		c-0.385,0.071-0.606,0.033-0.951,0.092C200.572,113.702,200.355,113.832,200.042,113.863z" style="opacity: 1;"></path>
	<path class="stblack" d="M216.611,102.873l-0.714-0.06c-0.332,0.006-0.644,0.096-0.948,0.071c-0.354-0.028-0.695-0.177-0.998-0.243
		c-0.293-0.063-0.549-0.044-0.781-0.136c-0.604-0.241-0.98-0.57-1.013-0.934c-0.031-0.336,0.23-0.696,0.703-1.022
		c0.224-0.156,0.5-0.254,0.811-0.388l0.644-0.292l0.616-0.12l0.628-0.178l0.747-0.046l0.63-0.082l0.644,0.08l0.643-0.028l0.51,0.019
		l0.684-0.095l0.798,0.046l0.806,0.009l0.751,0.18l0.487,0.098c0.532,0.2,0.857,0.48,0.888,0.82c0.028,0.3-0.186,0.497-0.565,0.768
		c-0.223,0.158-0.497,0.407-0.829,0.541c-0.28,0.114-0.603,0.117-0.947,0.207c-0.265,0.069-0.537,0.229-0.832,0.281
		c-0.31,0.054-0.644-0.003-0.98,0.027l-0.607,0.192c-0.411,0.071-0.645,0.033-1.013,0.091
		C217.177,102.713,216.945,102.842,216.611,102.873z" style="opacity: 1;"></path>
	<path class="stblack" d="M219.131,111.331l-0.584-0.08l-0.775,0.043l-0.817-0.273l-0.639-0.159c-0.494-0.259-0.801-0.598-0.828-0.962
		c-0.024-0.336,0.189-0.688,0.576-1l0.663-0.363l0.528-0.273l0.504-0.101l0.514-0.158l0.611-0.024l0.515-0.063l0.527,0.101
		l0.525-0.011l0.417,0.035l0.559-0.074l0.653,0.071l0.659,0.033l0.615,0.202l0.398,0.114c0.435,0.215,0.701,0.503,0.726,0.846
		c0.022,0.3-0.152,0.491-0.462,0.749l-0.678,0.516l-0.775,0.178l-0.681,0.254l-0.802-0.002l-0.496,0.174
		c-0.336,0.058-0.528,0.014-0.829,0.06L219.131,111.331z" style="opacity: 1;"></path>
	<path class="stblack" d="M233.839,97.177c-0.057-0.549-0.022-1.272,0.011-1.106l-0.009-0.169l-0.002-0.006l-0.272-0.222l-0.627,0.281l-0.769,0.349
		c-1.301,0.465-2.171,0.584-2.366,0.275c-0.178-0.286,0.222-0.931,1.059-1.789c0.465-0.45,0.766-0.723,1.651-1.401
		c0.685-0.508,1.488-1.141,2.396-1.772c0.487-0.319,0.977-0.642,1.507-0.991c0.039,0.306,0.081,0.644,0.125,0.986
		c0.132,0.901,0.271,1.849,0.41,2.803c0.074,0.784,0.15,1.592,0.228,2.417c0.073,0.6,0.129,1.07,0.177,1.467
		c0.039,0.593-0.001,1.032,0.013,1.483c0.036,0.431,0.073,0.872,0.125,1.491c0.025,0.334,0.009,0.723,0.057,1.18
		c0.067,0.543,0.133,1.076,0.196,1.593c0.025,0.634,0.049,1.256,0.072,1.844c0.034,0.659,0.103,1.281,0.11,1.868
		c0.008,0.618-0.049,1.199-0.07,1.72c-0.017,0.41,0.007,0.781-0.027,1.12c-0.123,1.208-0.357,1.934-0.698,1.969
		c-0.299,0.03-0.531-0.484-0.861-1.391c-0.194-0.533-0.487-1.194-0.673-1.978c-0.156-0.661-0.207-1.412-0.349-2.215
		c-0.109-0.622-0.312-1.27-0.407-1.958c-0.101-0.724-0.093-1.492-0.174-2.275c-0.07-0.584-0.23-1.035-0.285-1.425
		c-0.099-0.966-0.154-1.494-0.243-2.357C234.086,98.503,233.92,97.953,233.839,97.177z" style="opacity: 1;"></path>
	<path class="stblack" d="M249.527,105.182c0.02-0.322,0.02-0.644,0.016-0.962l0.07-0.896c0.001-0.371-0.012-0.737-0.037-1.1
		c0.006-0.346,0.013-0.699,0.019-1.038c-0.009-0.317-0.054-0.626-0.091-0.936c-0.007-0.293-0.014-0.6-0.021-0.887
		c-0.028-0.364-0.091-0.715-0.159-1.068c-0.032-0.309-0.064-0.634-0.094-0.936c-0.043-0.314-0.14-0.609-0.23-0.91l-0.155-0.798
		l-0.304-0.827c-0.178-0.476-0.357-0.959-0.524-1.404c-0.252-0.429-0.569-0.869-0.863-1.317c-0.246-0.368-0.591-0.713-0.917-0.992
		c-0.368-0.336-0.851-0.48-1.274-0.514c-0.764-0.087-1.279,0.238-1.599,1.257c-0.24,0.749-0.202,1.306-0.061,1.661l0.259,0.328
		l0.337,0.453l0.517,0.361l0.501,0.458c0.251,0.194,0.622,0.641,1.029,1.256l0.226,0.555l0.382,0.644
		c0.103,0.323,0.205,0.644,0.314,0.988l0.285,0.645l0.12,0.625l0.205,0.551l0.103,0.612l0.192,0.742l0.058,0.588l0.13,0.642
		l0.011,0.803c0.032,0.401,0.084,0.779,0.044,1.119l-0.127,0.596c-0.069,0.405-0.111,0.822-0.253,1.229l-0.278,0.702l-0.16,0.631
		l-0.333,0.738l-0.168,0.68c-0.155,0.39-0.311,0.779-0.459,1.15l-0.252,0.798l-0.312,0.576l-0.271,0.62l-0.38,0.445l-0.252,0.705
		l-0.071,0.495l0.216,0.858c0.274,0.652,0.778,1.179,1.485,0.948c0.256-0.082,0.498-0.297,0.78-0.595
		c0.238-0.245,0.426-0.558,0.599-0.972l0.161-0.562c0.151-0.387,0.248-0.738,0.345-1.084c0.062-0.328,0.129-0.674,0.185-0.972
		c0.068-0.417,0.186-0.794,0.271-1.18l0.154-0.936l0.141-0.458c0.044-0.338,0.092-0.699,0.141-1.066
		c0.064-0.434,0.132-0.888,0.206-1.387l0.026-0.771C249.448,105.792,249.487,105.492,249.527,105.182z" style="opacity: 1;"></path>
	<path class="stblack" d="M261.003,105.658c-0.203-0.585-0.509-1.21-1.111-1.887c-0.523-0.678-1.884-1.316-2.95-1.038
		c-0.629,0.147-0.987,0.325-1.53,0.756l2.305,3.016l0.466-0.379c0.461-0.383,0.918-0.753,1.32-1.215
		c0.472-0.554,0.861-1.216,1.188-1.963c0.275-0.6,0.512-1.3,0.543-2.056c0.017-0.44-0.069-1.207-0.347-1.944
		c-0.26-0.732-0.272-0.833-0.394-1.22c-0.186-0.532-0.319-0.959-0.346-1.104l-0.033-0.759c-0.018-0.314-0.063-0.617-0.03-0.912
		c0.035-0.323,0.15-0.622,0.235-0.925l0.129-0.571c0.16-0.494,0.471-0.973,0.661-1.5l0.282-0.891
		c0.14-0.369,0.231-0.724,0.263-1.093c0.036-0.715-0.207-1.455-0.976-2.092c-0.337-0.276-0.7-0.249-1.201-0.109
		c-0.383,0.096-0.858,0.263-1.275,0.579c-0.375,0.262-0.633,0.708-0.985,1.098c-0.405,0.511-0.872,1.059-1.171,1.71
		c-0.263,0.598-0.368,1.246-0.478,1.838c-0.169,0.868-0.257,1.657-0.185,2.202c0.026,0.377,0.172,0.835,0.285,1.349
		c0.095,0.445,0.132,0.962,0.319,1.469c0.146,0.418,0.421,0.805,0.623,1.22c0.165,0.387,0.336,0.787,0.515,1.208l0.222,0.519
		l-0.185,0.443c-0.094,0.295-0.211,0.708-0.482,1.063l-0.788,0.732l-0.268,0.308l2.127,2.783l-0.106-0.123l-0.06-0.387l-0.289,0.437
		c0.052,0.016,0.336,0.226,0.457,0.535c0.114,0.276,0.133,0.614,0.211,0.972c0.084,0.328,0.298,0.835,0.409,1.322
		c0.15,0.544,0.208,1.125,0.413,1.669c0.14,0.434,0.431,0.811,0.599,1.227c0.181,0.368,0.26,0.784,0.459,1.144
		c0.223,0.399,0.53,0.742,0.786,1.104c0.19,0.301,0.326,0.642,0.546,0.92c0.264,0.363,0.661,0.611,0.94,0.928
		c0.316,0.29,0.536,0.666,0.865,0.915c0.338,0.271,0.696,0.475,1.038,0.675c0.329,0.226,0.656,0.439,0.977,0.6
		c0.501,0.207,1.031,0.192,1.453,0.161c0.375-0.043,0.674,0.005,0.936-0.155c1.003-0.562,0.896-1.453,0.206-2.002
		c-0.215-0.178-0.469-0.391-0.808-0.547l-0.735-0.257c-0.4-0.142-0.846-0.497-1.314-0.847c-0.466-0.394-0.967-0.812-1.284-1.229
		c-0.345-0.413-0.5-0.79-0.553-0.86l-0.547-0.836c-0.263-0.519-0.419-1.104-0.579-1.729l-0.214-0.7
		c-0.028-0.308-0.059-0.639-0.091-0.972c-0.059-0.352-0.121-0.713-0.186-1.096C261.222,106.712,261.17,106.205,261.003,105.658z" style="opacity: 1;"></path>
	<path class="stblack" d="M158.517,233.541c0.104-0.377,0.134-0.776,0.245-1.15l0.599-1.081c0.48-0.678,0.954-1.35,1.425-2.015
		c-0.625-0.435-1.253-0.872-1.865-1.298l-0.461-0.334l-0.221-0.188l-0.434-0.38l-0.607-0.868c-0.239-0.357-0.452-0.727-0.634-1.108
		c-0.113-0.371-0.218-0.71-0.297-1.089c-0.089-0.382-0.234-0.73-0.296-1.137c-0.042-0.352-0.085-0.71-0.126-1.051
		c-0.057-0.387-0.178-0.783-0.262-1.199c-0.143-0.702-0.281-1.472-0.652-2.225c-0.334-0.738-0.965-1.524-1.708-2.092
		c-0.59-0.486-1.264-0.828-1.873-1.025c-0.701-0.151-1.388-0.238-1.884-0.091c-0.941,0.194-1.471,0.669-1.41,1.737
		c0.042,0.787,0.456,1.292,1.01,1.595l0.664,0.29l0.75,0.357l0.692,0.263l0.582,0.458c0.246,0.279,0.712,0.865,1.063,2.029
		c0.08,0.306,0.161,0.62,0.248,0.954c0.14,0.377,0.292,0.786,0.443,1.19c0.211,0.544,0.364,1.123,0.676,1.69
		c0.167,0.366,0.43,0.694,0.676,1.032c0.207,0.308,0.372,0.645,0.648,0.909l0.73,0.689l0.809,0.678
		c0.303,0.24,0.491,0.234,0.769,0.382l0.487,0.33l-0.267,0.555l-0.23,0.355l-0.26,0.573c-0.294,0.593-0.338,1.21-0.472,1.739
		c-0.107,0.336-0.152,0.653-0.203,0.948c-0.122,0.659-0.072,1.322-0.1,2.005c-0.003,0.387-0.006,0.798-0.009,1.19
		c0.008,0.355,0.102,0.682,0.135,1.024c0.043,0.424,0.044,0.854,0.106,1.257l0.222,1.065c0.122,0.645,0.163,1.265,0.24,1.846
		c0.042,0.404,0.083,0.801,0.122,1.185l-0.146,0.852l-0.23,0.809l-0.472,0.541c-0.203,0.248-0.432,0.486-0.569,0.784l-0.377,0.56
		c-0.159,0.314-0.263,0.658-0.302,0.984c-0.094,0.771,0.178,1.45,1.213,1.328c0.37-0.082,0.825-0.156,1.351-0.609
		c0.422-0.364,0.997-0.7,1.361-1.475c0.166-0.328,0.312-0.65,0.407-0.966c0.191-0.724,0.413-1.393,0.371-1.994
		c0.032-0.607-0.093-1.115-0.176-1.595c-0.074-0.68-0.223-1.223-0.335-1.816c-0.121-0.439-0.282-0.869-0.385-1.316l-0.114-0.664
		c-0.129-0.458-0.263-0.939-0.403-1.439c-0.139-0.587-0.202-1.201-0.278-1.858c-0.021-0.316-0.105-0.648-0.118-0.994
		C158.428,234.31,158.471,233.934,158.517,233.541z" style="opacity: 1;"></path>
	<path class="stblack" d="M188.06,140.665l-0.372-1.557l-0.047-0.2l-0.001-0.016l0.772-0.205c0.356-0.104,0.702-0.385,0.891-0.328
		c0.241,0.022,0.725,0.118,1.081,0.125h0.474l0.001-0.044v0.039l0.002,0.163l0.022,0.786c0.014,1.085,0.028,2.158,0.042,3.215
		c-0.021,3.069-0.097,6.079-1.131,8.988c-0.58,1.616-1.75,3.531-3.844,4.176c-0.995,0.295-2.016,0.267-2.818,0.008
		c-0.834-0.155-1.644-0.568-2.352-1.071c-1.398-1.1-1.843-2.638-2.124-3.827c-0.279-1.24-0.344-2.341-0.428-3.323
		c-0.121-2.589-0.684-4.271-1.867-4.765c-0.543-0.304-1.057-0.42-1.414-0.503c-0.353-0.106-0.551-0.205-0.556-0.297
		c-0.01-0.106,0.641-0.453,2.001-0.27c0.659,0.073,1.594,0.453,2.252,1.291c0.671,0.811,1.109,1.926,1.357,3.07
		c0.271,1.093,0.416,2.283,0.674,3.442c0.253,1.153,0.64,2.327,1.38,2.957c0.429,0.462,1.13,0.596,1.886,0.718
		c0.747,0.076,1.254-0.139,1.731-0.554c0.827-0.743,1.439-2.415,1.711-4.17c0.271-1.704,0.308-3.561,0.289-5.474
		c-0.03-1.063-0.062-2.142-0.093-3.234l-0.04-0.846l-0.018-0.489l0.022-0.379l0.006-0.049c0.034-0.063-0.014-0.227,0.314-0.718
		c0.154-0.235,0.656-0.678,1.335-0.675c0.662,0.011,1.012,0.32,1.174,0.467c0.551,0.678,0.285,0.428,0.361,0.5l0.021,0.05
		l0.074,0.204l0.085,0.317l0.414,1.679c0.559,2.294,0.992,4.096,1.294,5.632c0.444,2.281,0.659,3.958,0.909,5.705
		c0.233,1.666,0.516,3.394,0.737,5.836c0.114,1.314,0.176,2.837,0.209,4.671c0.017,2.19-0.02,4.372-0.573,6.558
		c-0.345,1.314-0.869,2.698-1.999,3.851c-1.141,1.199-2.94,1.623-4.302,1.497c-0.812-0.03-1.864-0.33-2.586-1.114
		c-0.72-0.764-0.959-1.682-1.055-2.444c-0.125-1.533,0.175-2.792,0.517-3.958c0.771-2.442,1.878-4.438,2.926-6.197
		c0.829-1.377,1.63-2.611,2.44-3.652c2.857-3.782,5.542-5.137,5.705-4.768c0.138,0.249-1.504,1.425-3.46,4.421
		c-1.15,1.739-2.409,4.047-3.628,6.774c-0.51,1.15-1.019,2.378-1.413,3.674c-0.383,1.254-0.681,2.756-0.405,3.76
		c0.032,1.164,2.857,1.019,3.58-0.603c1.077-1.882,1.399-4.87,1.358-7.757c-0.044-2.201-0.33-3.95-0.503-5.429
		c-0.459-3.641-0.756-5.669-1.402-8.914C189.314,145.658,188.766,143.566,188.06,140.665z" style="opacity: 1;"></path>
	<path class="stblack" d="M211.294,154.548c-0.389,0.054-0.785,0-1.158,0.035c-0.539,0.05-1.044,0.183-1.537,0.199
		c-0.574,0.017-1.126-0.087-1.616-0.114c-0.475-0.025-0.891,0.028-1.266-0.033c-0.977-0.163-1.582-0.443-1.633-0.806
		c-0.046-0.334,0.381-0.73,1.151-1.123c0.364-0.186,0.813-0.32,1.318-0.497c0.327-0.115,0.673-0.275,1.048-0.379
		c0.316-0.088,0.655-0.125,1.001-0.204c0.33-0.076,0.667-0.196,1.021-0.262c0.39-0.073,0.799-0.088,1.212-0.145
		c0.419-0.057,0.743-0.142,1.022-0.166c0.416-0.035,0.726,0.006,1.044-0.003c0.302-0.011,0.609-0.073,1.042-0.115
		c0.233-0.024,0.508-0.005,0.827-0.049c0.38-0.052,0.747-0.147,1.111-0.185c0.444-0.047,0.881-0.033,1.294-0.06
		c0.461-0.028,0.894-0.093,1.307-0.096c0.436-0.003,0.849,0.057,1.217,0.08l0.79,0.035c0.86,0.131,1.385,0.369,1.432,0.708
		c0.042,0.297-0.307,0.525-0.924,0.847c-0.363,0.189-0.809,0.476-1.35,0.656c-0.455,0.151-0.98,0.197-1.537,0.333
		c-0.43,0.104-0.874,0.301-1.353,0.391c-0.503,0.096-1.045,0.082-1.59,0.158c-0.407,0.066-0.715,0.222-0.986,0.273
		c-0.667,0.126-1.047,0.12-1.644,0.227C212.213,154.313,211.836,154.474,211.294,154.548z" style="opacity: 1;"></path>
	<path class="stblack" d="M211.363,150.82c-0.054-0.404,0.002-0.811-0.034-1.197c-0.051-0.557-0.183-1.081-0.198-1.59
		c-0.018-0.593,0.087-1.163,0.113-1.669c0.026-0.491-0.028-0.921,0.034-1.308c0.163-1.008,0.444-1.631,0.806-1.68
		c0.334-0.044,0.732,0.401,1.124,1.199c0.186,0.38,0.321,0.844,0.498,1.368c0.114,0.338,0.274,0.697,0.379,1.087
		c0.088,0.327,0.124,0.677,0.203,1.035c0.076,0.342,0.196,0.691,0.263,1.057c0.072,0.404,0.088,0.827,0.144,1.254
		c0.058,0.434,0.144,0.768,0.166,1.059c0.035,0.429-0.007,0.749,0.003,1.078c0.01,0.312,0.073,0.629,0.115,1.078
		c0.023,0.241,0.005,0.525,0.048,0.855c0.053,0.393,0.148,0.773,0.185,1.149c0.047,0.459,0.033,0.912,0.059,1.338
		c0.028,0.478,0.094,0.926,0.097,1.352c0.003,0.451-0.057,0.877-0.082,1.257c-0.019,0.298,0.002,0.566-0.034,0.816
		c-0.131,0.887-0.369,1.428-0.708,1.472c-0.297,0.041-0.525-0.322-0.848-0.962c-0.189-0.377-0.476-0.841-0.656-1.401
		c-0.151-0.472-0.197-1.014-0.333-1.592c-0.104-0.445-0.302-0.906-0.392-1.401c-0.095-0.521-0.083-1.081-0.158-1.644
		c-0.066-0.421-0.222-0.742-0.274-1.022c-0.126-0.689-0.119-1.082-0.226-1.701C211.599,151.771,211.438,151.38,211.363,150.82z" style="opacity: 1;"></path>
	<path class="stblack" d="M232.293,146.776l-0.674-0.038c-0.311,0.017-0.595,0.117-0.883,0.101c-0.334-0.017-0.67-0.155-0.962-0.21l-0.75-0.11
		c-0.595-0.219-0.988-0.532-1.059-0.89c-0.066-0.33,0.143-0.696,0.562-1.035l0.739-0.412l0.592-0.311l0.582-0.142l0.59-0.197
		l0.715-0.071l0.6-0.106l0.624,0.06l0.615-0.052l0.49,0.002l0.651-0.117l0.767,0.019l0.771-0.017l0.724,0.155l0.468,0.082
		c0.512,0.183,0.827,0.451,0.865,0.792c0.033,0.298-0.163,0.503-0.511,0.786c-0.204,0.166-0.453,0.423-0.759,0.568
		c-0.258,0.123-0.561,0.136-0.877,0.235l-0.766,0.306c-0.287,0.063-0.603,0.016-0.916,0.057l-0.556,0.21
		c-0.379,0.084-0.601,0.054-0.942,0.123C232.81,146.6,232.603,146.737,232.293,146.776z" style="opacity: 1;"></path>
	<path class="stblack" d="M234.077,154.173l-0.617-0.066l-0.816,0.063c-0.305-0.032-0.602-0.183-0.864-0.252l-0.676-0.142
		c-0.525-0.246-0.853-0.577-0.888-0.942c-0.032-0.334,0.187-0.693,0.588-1.016l0.692-0.379l0.551-0.287l0.529-0.114l0.539-0.172
		l0.643-0.039l0.541-0.077l0.556,0.088l0.554-0.025l0.439,0.024l0.588-0.088l0.689,0.054l0.696,0.017l0.65,0.186l0.422,0.103
		c0.461,0.204,0.747,0.486,0.779,0.827c0.028,0.298-0.152,0.494-0.474,0.76l-0.705,0.535c-0.24,0.11-0.518,0.112-0.812,0.197
		l-0.712,0.273l-0.845,0.019l-0.52,0.186c-0.353,0.068-0.555,0.028-0.871,0.084L234.077,154.173z" style="opacity: 1;"></path>
	<path class="stblack" d="M256.479,148.029l-0.182-0.899l-0.077-0.874l-0.175-0.767l-0.089-0.939l-0.21-1.09l-0.053-0.896
		c-0.018-0.175-0.099-0.454-0.125-0.773l-0.01-0.794c-0.035-0.437-0.119-0.811-0.129-0.936l0.002-0.672l-0.132-0.852
		c-0.031-0.309-0.013-0.622-0.054-0.923l-0.138-0.536c-0.08-0.476-0.144-0.964-0.33-1.395l-0.416-0.637l-0.634-0.637
		c-0.53-0.303-1.245-0.396-2.211-0.144c-0.423,0.11-0.63,0.322-0.846,0.629c-0.162,0.23-0.372,0.525-0.443,0.827l-0.002,0.817
		c-0.009,0.355-0.081,0.738-0.032,1.09c0.044,0.322,0.205,0.615,0.277,0.899c0.105,0.42,0.132,0.8,0.245,1.049l0.294,0.636
		l0.13,0.764l0.306,0.688c0.08,0.281,0.064,0.595,0.144,0.901c0.073,0.281,0.245,0.554,0.312,0.85l0.035,0.633
		c0.076,0.366,0.252,0.719,0.334,1.087l0.099,0.882l0.277,0.74c0.074,0.312,0.05,0.634,0.121,0.926
		c0.076,0.309,0.247,0.587,0.316,0.863l0.084,0.781l0.289,0.828c0.069,0.323,0.04,0.667,0.103,0.997l0.245,0.767l0.018,0.719
		l0.217,0.757l-0.01,0.614l0.2,0.724l-0.019,0.697l0.111,0.653l-0.032,0.588l0.33,0.682l0.286,0.401
		c0.282,0.131,0.724,0.364,0.524,0.808c-0.028,0.147,0.097,0.453,0.671,0.229c0.307-0.194,0.292-0.14,0.464-0.295l0.321-0.388
		c0.207-0.297,0.384-0.615,0.435-1.002l-0.063-0.742c-0.034-0.375-0.077-0.847-0.121-1.333c-0.088-0.483-0.181-0.981-0.252-1.369
		c-0.058-0.402-0.05-0.697-0.058-0.764l-0.154-0.723c-0.059-0.42-0.026-0.861-0.042-1.335l-0.068-0.533l0.031-0.723l-0.095-0.735
		L256.479,148.029z" style="opacity: 1;"></path>
	<path class="stblack" d="M267.045,140.005c-0.506,0.805-0.996,1.713-1.303,2.669c-0.445,1.385-0.604,2.808-0.731,4.129
		c-0.155,1.543-0.185,3.001,0.032,4.266c0.209,1.231,0.7,2.198,1.188,2.93c1.298,1.964,3.221,1.994,3.157,2.444
		c0.001,0.158-0.356,0.338-1.089,0.398c-0.719,0.046-1.886-0.148-3.054-1.013c-1.115-0.816-1.97-2.231-2.548-3.856
		c-0.361-1.055-0.647-2.218-0.753-3.46c-0.093-1.044-0.041-2.135,0.069-3.258c0.103-1.073,0.232-2.193,0.549-3.318
		c0.351-1.238,0.871-2.482,1.633-3.712c0.782-1.237,1.678-2.207,2.76-2.761c1.628-0.904,3.355-0.42,4.214-0.071
		c0.996,0.352,2.089,0.833,3.221,1.948c0.631,0.577,1.155,1.409,1.671,2.392c0.581,1.186,0.991,2.398,1.16,3.584
		c0.212,1.45,0.159,2.838,0.038,4.14c-0.138,1.453-0.394,2.841-0.818,4.069c-0.41,1.175-0.799,2.294-1.231,3.359
		c-0.349,0.817-0.702,1.709-1.526,2.324c-0.734,0.547-1.596,0.595-2.147,0.491c-0.573-0.104-0.991-0.284-1.309-0.456
		c-0.633-0.352-0.901-0.647-0.841-0.8c0.043-0.374,1.376,0.222,2.778-0.211c0.663-0.248,0.905-1.41,1.241-3.021
		c0.255-1.358,0.831-2.889,1.01-4.376c0.155-1.202,0.11-2.499-0.002-3.796c-0.112-1.358-0.309-2.783-0.934-3.995
		c-0.448-0.931-1.103-1.36-1.549-1.776c-0.623-0.432-1.143-0.718-1.712-0.895c-0.653-0.199-0.998-0.304-1.402-0.161
		C268.354,138.344,267.756,138.877,267.045,140.005z" style="opacity: 1;"></path>
	<path class="stblack" d="M286.68,138.727l0.216-0.208l0.132-0.33l0.416-0.232l0.256-0.199c0.324-0.117,0.678-0.215,1.051-0.23
		c0.332-0.009,0.674,0.155,0.909,0.499l0.207,0.529l0.125,0.413l-0.039,0.333v0.347l-0.157,0.341l-0.095,0.297l-0.25,0.224
		l-0.152,0.267l-0.159,0.189l-0.111,0.304l-0.271,0.278l-0.242,0.292l-0.375,0.183l-0.229,0.125
		c-0.328,0.087-0.664,0.055-0.961-0.115l-0.49-0.587l-0.233-0.549l0.082-0.417l-0.021-0.413l0.233-0.341l-0.015-0.29l0.168-0.377
		L286.68,138.727z" style="opacity: 1;"></path>
	<path class="stblack" d="M287.48,151.202l0.308-0.424l0.258-0.629l0.544-0.533l0.357-0.443c0.397-0.293,0.789-0.451,1.153-0.385
		c0.33,0.06,0.614,0.36,0.775,0.838l0.093,0.746l0.043,0.582l-0.112,0.488l-0.073,0.513l-0.241,0.533l-0.166,0.465l-0.322,0.394
		l-0.226,0.44l-0.216,0.328l-0.189,0.494l-0.36,0.499l-0.334,0.519l-0.463,0.396l-0.286,0.265c-0.391,0.241-0.768,0.308-1.074,0.155
		c-0.269-0.134-0.352-0.368-0.431-0.74l-0.136-0.787l0.197-0.696l0.081-0.658l0.355-0.633l0.062-0.473
		c0.093-0.292,0.212-0.423,0.297-0.683L287.48,151.202z" style="opacity: 1;"></path>
	<path class="stblack" d="M190.434,201.166c-0.32,0.746-0.572,1.522-0.847,2.277c-0.271,0.727-0.565,1.44-0.799,2.18
		c-0.204,0.671-0.351,1.36-0.519,2.045c-0.207,0.833-0.443,1.655-0.567,2.561c-0.076,0.533-0.111,1.104-0.074,1.775
		c0.031,0.349,0.056,0.713,0.254,1.262c0.098,0.262,0.241,0.588,0.614,0.98l0.678,0.481l0.422,0.167l0.764,0.047
		c1.046-0.153,1.286-0.568,1.658-1.01c0.248-0.391,0.243-0.486,0.354-0.754c0.125-0.398,0.16-0.642,0.208-0.92
		c0.072-0.497,0.101-0.931,0.114-1.36c0.006-0.494-0.046-1.292-0.084-2.136c-0.018-0.669-0.038-1.396-0.056-2.068
		c-0.075-1.142-0.217-2.125-0.245-2.445l-0.103-1.715c-0.098-0.74-0.195-1.477-0.291-2.204c-0.082-0.792-0.163-1.576-0.245-2.354
		l-0.261-1.399c-0.189-1.227-0.372-2.477-0.672-3.619c-0.161-0.615-0.395-1.196-0.595-1.731c-0.26-0.696-0.5-1.309-0.833-1.791
		c-0.639-0.924-1.419-1.371-2.369-1.032c-0.416,0.148-0.577,0.615-0.723,1.322c-0.109,0.533-0.253,1.208-0.251,1.942
		c0.002,0.644,0.139,1.327,0.202,2.053c0.077,0.887,0.091,1.827,0.222,2.728c0.119,0.82,0.351,1.604,0.486,2.341
		c0.197,1.087,0.299,2.048,0.461,2.707c0.084,0.459,0.293,1.019,0.416,1.687c0.073,0.585,0.156,1.235,0.246,1.95
		c0.099,0.574,0.295,1.174,0.39,1.813c0.105,0.723,0.111,1.496,0.187,2.267c0.073,0.704,0.231,1.437,0.227,2.103l-0.075,0.601
		l-0.051,0.137c0.333-0.025,1.261,0.503,1.337,0.543l0.125,0.177l-0.002-0.043l0.026-0.019c0.079-0.297,0.028-0.099,0.05-0.169
		l0.314-0.235l0.924-0.352l-0.036-0.096c-0.058-0.229-0.073-0.652-0.029-1.06c0.065-0.659,0.286-1.339,0.429-2.027
		c0.138-0.62,0.184-1.265,0.353-1.871c0.207-0.767,0.523-1.481,0.755-2.188c0.241-0.751,0.403-1.499,0.652-2.161
		c0.226-0.592,0.558-1.16,0.826-1.765c0.278-0.642,0.497-1.332,0.829-1.97c0.374-0.723,0.873-1.373,1.321-2.019
		c0.332-0.481,0.705-1.104,1.001-1.379l0.749-0.327l0.818,0.268c0.181,0.246,0.17,0.421,0.339,0.871
		c0.216,0.521,0.469,1.081,0.622,1.647c0.133,0.584,0.164,1.164,0.254,1.723c0.11,0.588,0.215,1.15,0.316,1.68
		c0.043,0.554,0.085,1.084,0.123,1.565c0.095,0.729,0.343,1.371,0.523,1.934c0.158,0.488,0.242,0.92,0.439,1.257
		c0.767,1.309,1.661,1.374,2-0.222c0.106-0.494,0.21-1.149,0.176-1.989c-0.022-0.505-0.129-1.078-0.224-1.718
		c-0.142-0.915-0.249-2.1-0.5-3.321c-0.26-1.264-0.608-2.542-1.052-3.607c-0.171-0.506-0.616-1.237-0.835-1.639
		c-0.321-0.412-0.564-0.677-0.652-0.77c-0.727-0.558-1.681-0.994-2.621-0.696c-0.786,0.145-1.555,0.551-2.254,1.1
		c-0.622,0.529-1.05,0.978-1.483,1.496c-0.312,0.38-0.572,0.809-0.861,1.22c-0.363,0.51-0.753,1.016-1.102,1.589
		c-0.323,0.544-0.601,1.147-0.913,1.756C191.098,199.847,190.739,200.47,190.434,201.166z" style="opacity: 1;"></path>
	<path class="stblack" d="M215.236,195.657c-0.09-0.38-0.229-0.748-0.349-1.12c-0.11-0.361-0.158-0.737-0.281-1.093l-0.405-0.943
		c-0.112-0.366-0.33-0.855-0.522-1.265c-0.196-0.495-0.717-1.002-1.071-1.486c-0.465-0.382-0.827-0.883-1.448-1.122
		c-0.349-0.172-0.944-0.361-1.651-0.387c-0.572-0.093-1.095,0.009-1.637,0.087c-0.775,0.23-1.364,0.558-1.512,0.659
		c-0.314,0.167-0.678,0.292-0.935,0.486c-0.362,0.248-0.69,0.543-0.985,0.809c-0.349,0.284-0.701,0.54-0.988,0.847l-0.474,0.6
		c-0.43,0.499-0.845,1.018-1.116,1.578c-0.138,0.306-0.204,0.644-0.275,0.94c-0.082,0.398-0.146,0.746-0.072,1.101
		c0.15,0.7,0.635,1.245,1.562,1.625c0.404,0.167,0.712,0.11,1.082-0.008l0.909-0.382l0.602-0.637l0.863-0.768l0.543-0.806
		c0.273-0.36,0.573-0.563,0.713-0.794l0.371-0.533l0.537-0.35l0.368-0.372l0.323-0.043l0.277-0.085l0.154,0.216
		c0.122,0.194,0.424,0.27,0.584,0.598c0.13,0.256,0.189,0.486,0.319,0.778l0.445,0.751c0.151,0.325,0.167,0.696,0.295,1.007
		c0.138,0.33,0.339,0.634,0.443,0.942c0.09,0.278,0.1,0.582,0.177,0.882c0.088,0.314,0.274,0.615,0.362,0.945
		c0.086,0.374,0.071,0.773,0.154,1.156c0.062,0.301,0.208,0.596,0.261,0.902l0.021,0.844c0.036,0.308,0.181,0.601,0.21,0.904
		l-0.028,0.727c0.033,0.3,0.147,0.588,0.17,0.876l-0.053,0.835l0.078,0.801l-0.058,0.729c0.015,0.339,0.196,0.645,0.314,0.912
		l0.301,0.601c0.603,0.644,1.478,0.82,2.011,0.057c0.162-0.23,0.334-0.54,0.39-0.945c0.031-0.243-0.016-0.522-0.036-0.83
		c-0.016-0.442-0.035-1.002-0.055-1.578c-0.043-0.593-0.148-1.194-0.194-1.671c-0.05-0.492-0.03-0.855-0.037-0.936l-0.153-0.891
		c-0.05-0.517-0.046-1.059-0.068-1.645l-0.101-0.661c-0.023-0.284,0.017-0.587-0.018-0.899c-0.056-0.293-0.114-0.593-0.175-0.915
		C215.335,196.362,215.314,196.014,215.236,195.657z" style="opacity: 1;"></path>
	<path class="stblack" d="M239.469,190.391c-0.513,2.363-1.603,4.38-3.038,6.134c-1.042,1.243-2.37,2.422-4.217,2.919
		c-1.907,0.558-3.945-0.311-5.116-1.41c-1.416-1.339-2.082-2.95-2.527-4.408c-0.436-1.478-0.633-2.886-0.774-4.209
		c-0.26-2.556-0.287-4.831-0.214-6.754c0.072-0.585-0.058-1.298,0.137-1.576c0.584-0.109,0.712-0.42,0.696-0.252l0.589,0.489
		l-0.14,0.249l-0.293,0.659c-0.371,0.899-0.689,1.672-0.952,2.31c-0.539,1.268-0.911,1.939-1.088,1.89
		c-0.162-0.046-0.156-0.7,0.008-1.876c0.084-0.588,0.204-1.305,0.38-2.147c0.091-0.423,0.188-0.869,0.336-1.376l0.143-0.415
		l0.143-0.286l0.233-0.273c0.14-0.085,0.058-0.099,0.397-0.205c0.314-0.074,0.607,0.021,0.749,0.128
		c0.593,0.571,0.372,0.581,0.48,0.735l0.058,0.278l0.065,0.458c0.215,2.127,0.251,4.511,0.688,7.17
		c0.284,1.698,0.743,3.507,1.525,5.107c0.618,1.338,1.671,2.483,2.746,2.668c0.957,0.263,2.19-0.51,3.227-1.72
		c1.157-1.305,2.075-3.119,2.463-4.938c0.163-0.906,0.198-1.746,0.018-2.256c-0.029-0.322-0.203-0.412-0.247-0.622l-0.068-0.084
		c0.308-0.303,0.85-0.674,0.949-1.092c0.073-0.241,0.01,0.065,0.597,0.101c0.301,0.092,0.607,0.14,0.912,0.147l0.049-0.005
		c0.004,0.674,0.182,1.789,0.289,2.591c0.133,0.871,0.257,1.675,0.383,2.497c0.272,1.582,0.555,3.225,0.947,5.514
		c0.16,1.246,0.344,2.684,0.564,4.4c0.247,2.054,0.465,4.085,0.499,6.093c0.01,2.452-0.143,4.861-0.904,7.21
		c-0.496,1.295-1.028,2.695-2.414,3.64c-1.298,0.989-3.278,1.024-4.535,0.265c-2.627-1.649-3.277-4.403-3.21-6.503
		c0.066-1.701,0.525-3.171,1.123-4.362c2.425-4.127,5.017-5.265,5.107-5.112c0.098,0.115-0.178,0.554-0.752,1.275
		c-0.613,0.685-1.397,1.778-2.205,3.217c-0.868,1.687-1.628,4.162-0.841,6.549c0.443,2.023,2.718,3.859,4.047,2.319
		c1.141-1.166,1.46-3.662,1.56-6.047c0.097-2.572-0.005-5.345-0.352-8.194c-0.267-2.133-0.655-3.804-0.907-5.228
		c-0.63-3.559-0.979-5.527-1.542-8.71c-0.054-0.506-0.166-0.852-0.131-1.758l0.08-0.472l0.424-0.729
		c0.189-0.202,0.364-0.38,0.879-0.5c0.425-0.129,1.093,0.074,1.172,0.148l0.289,0.188l0.398,0.361
		c0.3,0.316,0.477,0.664,0.675,1.033C239.765,187.101,239.779,188.745,239.469,190.391z" style="opacity: 1;"></path>
	<path class="stblack" d="M252.932,190.886c-0.053-0.366-0.162-0.724-0.217-1.085c-0.054-0.35-0.054-0.705-0.108-1.052
		c-0.05-0.312-0.153-0.618-0.201-0.929c-0.059-0.377-0.062-0.759-0.118-1.133c-0.065-0.445-0.183-0.88-0.241-1.319
		c-0.047-0.36-0.036-0.726-0.076-1.082c-0.023-0.21-0.109-0.551-0.144-0.937c-0.027-0.306-0.002-0.645-0.028-0.954
		c-0.044-0.529-0.136-0.981-0.148-1.133l-0.01-0.809c-0.028-0.349-0.113-0.688-0.147-1.03c-0.036-0.374-0.023-0.749-0.069-1.114
		l-0.147-0.655c-0.087-0.577-0.158-1.167-0.349-1.698l-0.425-0.792c-0.189-0.319-0.364-0.598-0.644-0.806
		c-0.536-0.401-1.256-0.558-2.227-0.322c-0.424,0.104-0.632,0.346-0.846,0.705c-0.161,0.27-0.369,0.614-0.437,0.973
		c-0.06,0.316,0.011,0.641,0.007,0.992c-0.005,0.429-0.072,0.89-0.017,1.32c0.049,0.393,0.215,0.757,0.293,1.108
		c0.113,0.516,0.146,0.978,0.265,1.286c0.054,0.218,0.224,0.473,0.308,0.789c0.073,0.275,0.058,0.598,0.146,0.932
		c0.072,0.273,0.246,0.546,0.323,0.85c0.087,0.346,0.077,0.724,0.166,1.101c0.08,0.344,0.259,0.683,0.336,1.048l0.052,0.768
		c0.086,0.448,0.275,0.885,0.368,1.335c0.074,0.355,0.051,0.726,0.127,1.076c0.069,0.312,0.236,0.606,0.304,0.909
		c0.086,0.383,0.073,0.773,0.156,1.13c0.088,0.379,0.272,0.723,0.352,1.06c0.073,0.303,0.047,0.633,0.12,0.951
		c0.077,0.338,0.253,0.666,0.33,1.016c0.087,0.396,0.073,0.814,0.157,1.218c0.065,0.317,0.228,0.62,0.29,0.939l0.065,0.879
		c0.058,0.317,0.215,0.617,0.272,0.926l0.038,0.756c0.057,0.309,0.211,0.595,0.264,0.888c0.053,0.293,0.005,0.593,0.052,0.866
		l0.192,0.812l0.058,0.759c0.073,0.346,0.302,0.629,0.471,0.879l0.411,0.554c0.726,0.535,1.611,0.478,1.982-0.342
		c0.114-0.251,0.228-0.579,0.213-0.977c-0.009-0.238-0.101-0.497-0.17-0.79c-0.098-0.42-0.159-0.969-0.27-1.519
		c-0.114-0.571-0.281-1.144-0.368-1.604c-0.091-0.476-0.099-0.83-0.113-0.909c-0.05-0.287-0.152-0.568-0.202-0.86
		c-0.085-0.502-0.078-1.03-0.118-1.598l-0.096-0.639c-0.017-0.275,0.019-0.566-0.003-0.866c-0.021-0.284-0.099-0.573-0.128-0.882
		C252.958,191.561,252.977,191.229,252.932,190.886z" style="opacity: 1;"></path>
	<path class="stblack" d="M256.948,190.724c-0.296,0.035-0.599-0.038-0.883-0.019c-0.41,0.025-0.794,0.133-1.171,0.126
		c-0.438-0.009-0.861-0.139-1.235-0.188c-0.362-0.047-0.679-0.013-0.966-0.092c-0.748-0.207-1.214-0.514-1.257-0.877
		c-0.04-0.334,0.279-0.712,0.861-1.066c0.276-0.167,0.616-0.282,0.999-0.434l0.794-0.33l0.76-0.156l0.775-0.213
		c0.296-0.054,0.608-0.05,0.922-0.088c0.319-0.038,0.565-0.109,0.779-0.12c0.316-0.014,0.554,0.041,0.795,0.046
		c0.231,0.003,0.464-0.044,0.794-0.066l0.629-0.011l0.845-0.133c0.338-0.027,0.672,0.008,0.987,0
		c0.352-0.006,0.681-0.052,0.996-0.036c0.333,0.017,0.648,0.096,0.929,0.137l0.603,0.071c0.658,0.169,1.062,0.431,1.103,0.77
		c0.036,0.298-0.226,0.51-0.693,0.801c-0.274,0.172-0.611,0.439-1.02,0.592c-0.345,0.129-0.745,0.151-1.168,0.26
		c-0.327,0.085-0.662,0.26-1.026,0.328c-0.383,0.073-0.796,0.035-1.211,0.085c-0.31,0.046-0.542,0.188-0.749,0.226
		c-0.506,0.095-0.797,0.071-1.25,0.15C257.645,190.53,257.361,190.673,256.948,190.724z" style="opacity: 1;"></path>
	<path class="stblack" d="M267.366,188.679c-0.059-0.399-0.175-0.792-0.237-1.186c-0.06-0.383-0.067-0.77-0.128-1.149
		c-0.055-0.342-0.164-0.677-0.219-1.016c-0.065-0.412-0.077-0.828-0.139-1.237c-0.074-0.486-0.2-0.962-0.265-1.442
		c-0.054-0.393-0.05-0.79-0.095-1.18c-0.027-0.23-0.12-0.603-0.161-1.024c-0.033-0.334-0.013-0.704-0.045-1.041
		c-0.054-0.576-0.154-1.073-0.169-1.237c-0.026-0.293,0.002-0.592-0.024-0.883c-0.035-0.38-0.126-0.751-0.166-1.126
		c-0.043-0.407-0.036-0.816-0.09-1.215l-0.158-0.715c-0.099-0.631-0.18-1.276-0.381-1.855c-0.108-0.312-0.289-0.603-0.44-0.869
		c-0.196-0.349-0.376-0.656-0.66-0.887c-0.544-0.443-1.268-0.625-2.238-0.379c-0.424,0.107-0.628,0.369-0.836,0.757
		c-0.157,0.293-0.359,0.664-0.42,1.057c-0.054,0.344,0.023,0.699,0.025,1.082c0.003,0.467-0.056,0.969,0.006,1.44
		c0.056,0.428,0.23,0.828,0.313,1.21c0.123,0.565,0.165,1.068,0.289,1.407c0.058,0.237,0.233,0.517,0.324,0.863
		c0.078,0.3,0.069,0.653,0.163,1.019c0.077,0.298,0.256,0.598,0.339,0.931c0.094,0.377,0.091,0.79,0.186,1.204
		c0.087,0.375,0.272,0.748,0.356,1.145l0.066,0.839c0.094,0.489,0.292,0.967,0.394,1.459c0.08,0.39,0.064,0.794,0.147,1.175
		c0.074,0.342,0.247,0.663,0.321,0.994c0.094,0.42,0.088,0.844,0.177,1.234c0.095,0.415,0.286,0.794,0.372,1.161
		c0.077,0.331,0.058,0.689,0.136,1.04c0.084,0.369,0.267,0.729,0.349,1.112c0.094,0.432,0.088,0.888,0.179,1.328
		c0.072,0.349,0.241,0.68,0.308,1.027c0.062,0.316,0.023,0.647,0.08,0.959c0.064,0.349,0.226,0.675,0.289,1.014l0.052,0.825
		c0.063,0.338,0.222,0.65,0.281,0.97c0.058,0.32,0.016,0.648,0.068,0.947c0.055,0.314,0.161,0.604,0.207,0.888l0.072,0.828
		c0.079,0.377,0.315,0.689,0.487,0.964l0.423,0.609c0.737,0.593,1.624,0.541,1.981-0.349c0.109-0.273,0.218-0.628,0.195-1.062
		c-0.013-0.26-0.11-0.544-0.184-0.865c-0.106-0.459-0.176-1.059-0.297-1.661c-0.126-0.623-0.303-1.25-0.398-1.753
		c-0.099-0.521-0.115-0.907-0.129-0.992c-0.055-0.314-0.163-0.622-0.219-0.94c-0.094-0.549-0.097-1.125-0.147-1.745l-0.108-0.697
		c-0.022-0.3,0.009-0.618-0.018-0.945c-0.026-0.309-0.11-0.626-0.144-0.964C267.404,189.416,267.417,189.053,267.366,188.679z" style="opacity: 1;"></path>
	<path class="stblack" d="M288.922,183.668c-0.356,0.036-0.714-0.036-1.055-0.019c-0.491,0.025-0.954,0.134-1.403,0.126
		c-0.523-0.009-1.022-0.139-1.468-0.188c-0.431-0.047-0.811-0.013-1.151-0.092c-0.884-0.208-1.428-0.516-1.465-0.88
		c-0.033-0.336,0.365-0.712,1.075-1.068c0.336-0.169,0.748-0.282,1.212-0.435c0.3-0.098,0.619-0.241,0.963-0.33
		c0.289-0.073,0.599-0.092,0.915-0.155c0.303-0.062,0.612-0.166,0.935-0.215c0.357-0.054,0.73-0.05,1.107-0.088
		c0.383-0.038,0.679-0.109,0.934-0.12c0.379-0.014,0.661,0.041,0.95,0.046c0.275,0.005,0.555-0.044,0.951-0.066
		c0.211-0.013,0.461,0.019,0.753-0.009c0.347-0.035,0.683-0.114,1.014-0.134c0.405-0.027,0.803,0.008,1.178,0.002
		c0.421-0.008,0.817-0.054,1.193-0.036c0.398,0.016,0.77,0.096,1.104,0.137l0.718,0.071c0.779,0.17,1.251,0.432,1.286,0.773
		c0.03,0.298-0.293,0.51-0.863,0.803c-0.334,0.172-0.748,0.437-1.245,0.592c-0.418,0.129-0.896,0.151-1.406,0.26
		c-0.394,0.085-0.803,0.262-1.242,0.33c-0.461,0.071-0.953,0.033-1.45,0.084c-0.372,0.046-0.656,0.188-0.904,0.227
		c-0.611,0.095-0.954,0.069-1.502,0.15C289.763,183.476,289.416,183.619,288.922,183.668z" style="opacity: 1;"></path>
	<path class="stblack" d="M290.381,193.033c-0.295,0.03-0.588-0.05-0.869-0.039c-0.405,0.016-0.793,0.115-1.163,0.098
		c-0.429-0.019-0.832-0.159-1.194-0.218c-0.349-0.057-0.663-0.03-0.935-0.117c-0.708-0.226-1.124-0.546-1.124-0.912
		c0-0.336,0.353-0.707,0.948-1.049c0.282-0.161,0.621-0.268,1.003-0.41l0.791-0.311l0.741-0.137l0.76-0.196
		c0.287-0.047,0.587-0.036,0.89-0.065c0.309-0.032,0.549-0.095,0.754-0.101c0.304-0.006,0.528,0.055,0.76,0.066
		c0.221,0.009,0.448-0.033,0.767-0.047l0.607,0.006l0.819-0.112c0.327-0.017,0.647,0.024,0.951,0.025
		c0.341,0.002,0.661-0.035,0.964-0.011c0.322,0.025,0.626,0.112,0.899,0.161l0.585,0.085c0.637,0.186,1.033,0.456,1.073,0.797
		c0.035,0.298-0.222,0.502-0.685,0.783c-0.271,0.166-0.607,0.423-1.014,0.566c-0.344,0.121-0.74,0.134-1.161,0.233
		c-0.325,0.077-0.663,0.246-1.025,0.306c-0.382,0.062-0.789,0.014-1.201,0.055c-0.308,0.039-0.544,0.175-0.751,0.208
		c-0.506,0.084-0.79,0.052-1.243,0.121C291.083,192.857,290.791,192.994,290.381,193.033z" style="opacity: 1;"></path>
	<path class="stblack" d="M314.077,187.373c-0.047-0.342-0.15-0.675-0.2-1.013c-0.049-0.327-0.044-0.658-0.093-0.981
		c-0.046-0.292-0.144-0.577-0.188-0.866c-0.054-0.353-0.052-0.71-0.103-1.059c-0.06-0.415-0.17-0.82-0.221-1.231
		c-0.043-0.336-0.027-0.677-0.062-1.01c-0.019-0.196-0.101-0.513-0.129-0.874l-0.014-0.891c-0.036-0.494-0.121-0.917-0.133-1.057
		l0.002-0.756c-0.024-0.327-0.103-0.644-0.131-0.962c-0.032-0.349-0.013-0.699-0.054-1.04l-0.137-0.611
		c-0.079-0.538-0.14-1.09-0.325-1.582l-0.412-0.738c-0.185-0.295-0.357-0.555-0.631-0.748c-0.53-0.369-1.246-0.511-2.218-0.282
		c-0.426,0.099-0.636,0.328-0.855,0.664c-0.166,0.254-0.377,0.576-0.451,0.913c-0.063,0.295,0.003,0.598-0.006,0.926
		c-0.011,0.401-0.084,0.831-0.036,1.234c0.044,0.368,0.205,0.707,0.278,1.033c0.104,0.48,0.131,0.912,0.246,1.199
		c0.05,0.204,0.216,0.44,0.297,0.734c0.069,0.256,0.049,0.558,0.133,0.871l0.311,0.792c0.082,0.322,0.068,0.677,0.15,1.027
		c0.076,0.322,0.249,0.637,0.32,0.975l0.043,0.718c0.079,0.42,0.262,0.825,0.349,1.245c0.068,0.331,0.041,0.678,0.112,1.003
		c0.063,0.292,0.226,0.565,0.29,0.847c0.08,0.358,0.062,0.721,0.14,1.054c0.082,0.353,0.26,0.674,0.336,0.988
		c0.068,0.282,0.038,0.59,0.106,0.888c0.073,0.316,0.245,0.62,0.316,0.947c0.08,0.369,0.062,0.76,0.139,1.136
		c0.062,0.297,0.219,0.577,0.278,0.876l0.052,0.82c0.054,0.297,0.205,0.574,0.259,0.863l0.027,0.705l0.251,0.828l0.041,0.808
		l0.178,0.759l0.047,0.707c0.068,0.323,0.293,0.587,0.457,0.819l0.402,0.514c0.718,0.494,1.603,0.434,1.985-0.334
		c0.117-0.237,0.235-0.543,0.226-0.915l-0.158-0.737c-0.091-0.391-0.145-0.904-0.248-1.417c-0.107-0.533-0.265-1.066-0.345-1.496
		c-0.084-0.445-0.087-0.776-0.099-0.849l-0.189-0.801c-0.079-0.469-0.063-0.962-0.095-1.492l-0.088-0.596l0.009-0.809l-0.115-0.824
		C314.093,188.002,314.117,187.691,314.077,187.373z" style="opacity: 1;"></path>
	<path class="stblack" d="M322.807,176.72c-0.401,0.842-0.754,1.795-0.912,2.778c-0.232,1.425-0.155,2.852-0.041,4.179
		c0.118,1.551,0.341,3.007,0.76,4.25c0.174,0.618,0.503,1.104,0.727,1.623c0.3,0.454,0.581,0.879,0.844,1.279
		c1.51,1.936,3.267,2.06,3.245,2.513c0.101,0.21-1.696,0.936-4.109-0.671c-1.139-0.724-2.051-2.007-2.896-3.495
		c-0.492-0.986-0.986-2.071-1.3-3.28c-0.233-1.019-0.437-2.101-0.486-3.239c-0.115-1.084-0.112-2.228-0.008-3.405
		c0.174-1.298,0.503-2.636,1.137-3.969c0.633-1.339,1.417-2.415,2.355-3.043c0.347-0.238,0.677-0.451,0.992-0.636
		c0.358-0.103,0.697-0.2,1.024-0.295c0.655-0.222,1.26-0.216,1.884-0.174c0.599-0.025,1.177,0.092,1.805,0.319
		c0.666,0.147,1.251,0.519,1.929,0.964c0.682,0.502,1.387,1.196,2.016,2.079c0.806,1.037,1.412,2.142,1.827,3.269
		c0.517,1.373,0.784,2.761,0.876,4.092c0.162,1.481,0.114,2.923-0.163,4.236c-0.268,1.387-0.8,2.627-1.442,3.632
		c-0.409,0.841-1.065,1.451-1.559,2.024c-1.071,0.872-2.003,1.407-2.734,1.543c-0.7,0.192-1.085,0.207-1.147,0.047
		c-0.054-0.14,0.15-0.38,0.544-0.71c0.405-0.314,1.002-0.726,1.57-1.44c0.749-0.751,1.272-1.978,1.786-3.334
		c0.293-1.213,0.704-2.575,0.585-4.138c-0.011-1.194-0.357-2.436-0.699-3.687c-0.424-1.281-0.865-2.688-1.748-3.778
		c-0.633-0.835-1.322-1.251-1.843-1.515c-1.27-0.618-2.119-0.625-3.177-0.156C323.949,174.982,323.318,175.468,322.807,176.72z" style="opacity: 1;"></path>
	<path class="stblack" d="M347.876,179.694c0.235-0.787,0.445-1.521,0.429-2.207c-0.063-0.98-0.557-1.631-1.226-2.195
		c-0.778-0.669-1.866-1.164-2.918-1.426c-1.036-0.216-2.021-0.245-2.882-0.27c-2.254-0.103-3.695,0.03-3.802-0.353
		c-0.087-0.292,0.969-1.032,3.086-1.57c1.01-0.219,2.248-0.399,3.707-0.303c0.939,0.033,1.988,0.175,3.089,0.562
		c0.912,0.374,1.861,0.947,2.647,1.854c0.794,0.824,1.33,1.994,1.505,3.177c0.114,0.653,0.027,1.286,0,1.931
		c-0.136,0.592-0.246,1.22-0.426,1.797c-0.393,1.155-0.737,2.024-1.134,2.679c-0.552,1.049-1.008,1.56-1.439,2.256
		c-0.391,0.65-0.797,1.32-1.361,2.258c-0.314,0.497-0.677,1.073-1.107,1.756l-0.322,0.558l-0.033,0.084l-0.073,0.147l-0.215,0.256
		l0.164,0.028c0.314-0.033,0.016,0.027,1.41-0.222c1.074-0.175,2.082-0.276,2.986-0.396c0.71-0.101,1.349-0.192,1.939-0.276
		c2.101-0.205,3.365-0.164,3.437,0.17c0.065,0.293-0.82,0.667-2.382,1.248c-0.917,0.341-2.054,0.816-3.406,1.216
		c-0.569,0.169-1.18,0.317-1.82,0.469c-0.844,0.199-1.726,0.407-2.647,0.625c-1.756,0.442-3.62,0.912-5.575,1.404l0.435-0.771
		c1.155-1.926,2.362-3.936,3.605-6.008c0.516-0.898,0.835-1.661,1.175-2.266c0.857-1.466,1.328-2.273,2.095-3.584
		C347.158,181.647,347.507,180.802,347.876,179.694z" style="opacity: 1;"></path>
	<path class="stblack" d="M356.068,177.456c0.274-0.735,0.647-1.417,0.923-2.111c0.402-1.003,0.708-1.996,1.101-2.895
		c0.457-1.048,0.999-1.98,1.424-2.849c0.412-0.841,0.708-1.625,1.07-2.266c0.939-1.664,1.671-2.589,2.013-2.46
		c0.316,0.118,0.293,1.128-0.013,2.755c-0.145,0.77-0.402,1.661-0.672,2.679c-0.174,0.659-0.325,1.38-0.547,2.122
		c-0.21,0.618-0.426,1.257-0.655,1.928c-0.2,0.644-0.409,1.317-0.622,2c-0.284,0.74-0.577,1.499-0.877,2.277
		c-0.287,0.794-0.513,1.418-0.702,1.945l-0.226,0.205l-0.055,0.092l0.109-0.005l0.213,0.038c0.759-0.112,1.502-0.222,2.224-0.33
		c0.887-0.077,1.749-0.151,2.57-0.222c0.92-0.093,1.784-0.181,2.603-0.265c0.865-0.058,1.672-0.049,2.398-0.069
		c0.569-0.017,1.087-0.071,1.557-0.065c1.685,0.024,2.691,0.2,2.737,0.54c0.039,0.298-0.681,0.574-1.948,0.98
		c-0.746,0.238-1.671,0.587-2.764,0.838c-0.923,0.211-1.969,0.325-3.09,0.533c-0.866,0.159-1.772,0.417-2.732,0.57
		c-1.011,0.161-2.081,0.216-3.171,0.361c-1.538,0.26-2.781,0.47-3.811,0.645c-0.67,0.093-1.262,0.177-1.639,0.229
		c0.629-1.664,1.07-2.832,1.686-4.466c0.265-0.724,0.322-0.961,0.445-1.371C355.735,178.416,355.876,177.967,356.068,177.456z" style="opacity: 1;"></path>
	<path class="stblack" d="M364.238,176.823c-0.062-0.499-0.014-1-0.055-1.478c-0.062-0.691-0.202-1.343-0.227-1.972
		c-0.028-0.734,0.068-1.433,0.085-2.057c0.017-0.603-0.046-1.137,0.011-1.612c0.145-1.237,0.416-1.994,0.779-2.04
		c0.334-0.039,0.741,0.525,1.148,1.529c0.194,0.475,0.338,1.055,0.524,1.709c0.12,0.423,0.287,0.872,0.399,1.358
		c0.095,0.407,0.136,0.841,0.222,1.287c0.082,0.426,0.208,0.861,0.281,1.316c0.079,0.502,0.103,1.024,0.167,1.554
		c0.066,0.538,0.158,0.956,0.186,1.314c0.043,0.532,0.005,0.926,0.022,1.33c0.014,0.387,0.084,0.781,0.134,1.336
		c0.027,0.298,0.013,0.648,0.063,1.057c0.06,0.488,0.161,0.961,0.207,1.426c0.054,0.57,0.049,1.126,0.082,1.655
		c0.036,0.59,0.11,1.147,0.12,1.672c0.013,0.557-0.041,1.081-0.06,1.549c-0.014,0.368,0.013,0.7-0.021,1.005
		c-0.115,1.09-0.345,1.746-0.685,1.789c-0.298,0.036-0.533-0.42-0.868-1.226c-0.197-0.473-0.494-1.059-0.683-1.756
		c-0.159-0.59-0.216-1.262-0.361-1.98c-0.114-0.554-0.319-1.131-0.42-1.746c-0.104-0.648-0.101-1.338-0.186-2.038
		c-0.074-0.522-0.235-0.923-0.292-1.272c-0.139-0.858-0.139-1.341-0.257-2.109C364.491,178.008,364.322,177.519,364.238,176.823z" style="opacity: 1;"></path>
	<path class="stblack" d="M358.952,51.838c-3.77-0.344-6.689-8.781-0.418-7.109c3.732,0.995,4.799,3.471,4.083,5.225
		C362.129,51.147,360.815,52.007,358.952,51.838z" style="opacity: 1;"></path>
	<path class="stblack" d="M486.018,70.434c12.13,2.021,17.479,14.983,17.479,14.983s9.989,5.62,8.741,19.978c-1.249,14.36-6.867,9.99-13.111,0.625
		c-6.242-9.365-9.987-15.608-13.734-23.1C481.648,75.427,482.273,69.809,486.018,70.434z" style="opacity: 1;"></path>
	<path class="stblack" d="M530.643,73.349c8.74,3.747,14.359,21.227,11.237,29.968s-6.242,2.497-8.74-4.37s-7.492-11.862-10.612-18.73
		c-3.122-6.868-4.995-8.74-4.37-11.861C518.782,65.234,530.643,73.349,530.643,73.349z" style="opacity: 1;"></path>
</g>
</svg>
